<?xml version="1.0" encoding="UTF-8"?>
<svg width="20px" height="20px" viewBox="0 0 20 20" version="1.1" xmlns="http://www.w3.org/2000/svg" xmlns:xlink="http://www.w3.org/1999/xlink">
    <!-- Generator: sketchtool 53.2 (72643) - https://sketchapp.com -->
    <title>6DE55D92-8FA2-4942-B438-F55B72A36903</title>
    <desc>Created with sketchtool.</desc>
    <g id="ui-27/3/19" stroke="none" stroke-width="1" fill="none" fill-rule="evenodd">
        <g id="homepage" transform="translate(-896.000000, -4794.000000)" fill="#0E1547" fill-rule="nonzero">
            <g id="Group-31" transform="translate(664.000000, 4682.000000)">
                <g id="btn-copy-5" transform="translate(202.000000, 93.000000)">
                    <g id="Group-30" transform="translate(30.000000, 19.000000)">
                        <g id="ic-play-circle-outline-24px">
                            <path d="M8,14.5 L14,10 L8,5.5 L8,14.5 Z M10,0 C4.48,0 0,4.48 0,10 C0,15.52 4.48,20 10,20 C15.52,20 20,15.52 20,10 C20,4.48 15.52,0 10,0 Z M10,18 C5.59,18 2,14.41 2,10 C2,5.59 5.59,2 10,2 C14.41,2 18,5.59 18,10 C18,14.41 14.41,18 10,18 Z" id="Shape"></path>
                        </g>
                    </g>
                </g>
            </g>
        </g>
    </g>
</svg>