<?xml version="1.0" encoding="UTF-8"?>
<svg width="11px" height="12px" viewBox="0 0 11 12" version="1.1" xmlns="http://www.w3.org/2000/svg" xmlns:xlink="http://www.w3.org/1999/xlink">
    <!-- Generator: sketchtool 53.2 (72643) - https://sketchapp.com -->
    <title>5C87C1AE-2DC1-437B-A919-5E07E13F451F</title>
    <desc>Created with sketchtool.</desc>
    <g id="ui-27/3/19" stroke="none" stroke-width="1" fill="none" fill-rule="evenodd">
        <g id="homepage" transform="translate(-1020.000000, -696.000000)" fill="#0E1547" stroke="#0E1547" stroke-width="0.5">
            <g id="Group-38">
                <g id="btn" transform="translate(844.000000, 674.000000)">
                    <g id="Group-27" transform="translate(46.000000, 20.000000)">
                        <g id="Group-20" transform="translate(130.000000, 3.000000)">
                            <path d="M12.5069808,2.39851012 C12.33782,2.23763512 12.0640634,2.23763512 11.8957634,2.39851012 L7.46917212,7.05563512 L3.04344169,2.39851012 C2.87471125,2.23763512 2.60095473,2.23763512 2.4322243,2.39851012 C2.26349386,2.56351012 2.26349386,2.82751012 2.4322243,2.98838512 L7.14247212,7.94251012 C7.23243299,8.02913512 7.35166343,8.06626012 7.46917212,8.05801012 C7.58711125,8.06626012 7.70634169,8.02913512 7.79673299,7.94251012 L12.5069808,2.98838512 C12.6752808,2.82751012 12.6752808,2.56351012 12.5069808,2.39851012" id="Fill-3" transform="translate(7.469441, 5.168493) rotate(-90.000000) translate(-7.469441, -5.168493) "></path>
                            <path d="M8.38198082,2.39851012 C8.21281995,2.23763512 7.93906343,2.23763512 7.77076343,2.39851012 L3.34417212,7.05563512 L-1.08155831,2.39851012 C-1.25028875,2.23763512 -1.52404527,2.23763512 -1.6927757,2.39851012 C-1.86150614,2.56351012 -1.86150614,2.82751012 -1.6927757,2.98838512 L3.01747212,7.94251012 C3.10743299,8.02913512 3.22666343,8.06626012 3.34417212,8.05801012 C3.46211125,8.06626012 3.58134169,8.02913512 3.67173299,7.94251012 L8.38198082,2.98838512 C8.55028082,2.82751012 8.55028082,2.56351012 8.38198082,2.39851012" id="Fill-3-Copy" transform="translate(3.344441, 5.168493) rotate(-90.000000) translate(-3.344441, -5.168493) "></path>
                        </g>
                    </g>
                </g>
            </g>
        </g>
    </g>
</svg>