<?xml version="1.0" encoding="UTF-8"?>
<svg width="111px" height="114px" viewBox="0 0 111 114" version="1.1" xmlns="http://www.w3.org/2000/svg" xmlns:xlink="http://www.w3.org/1999/xlink">
    <!-- Generator: sketchtool 53.2 (72643) - https://sketchapp.com -->
    <title>818A6890-63E4-428E-B0BB-BEDC9086A73C</title>
    <desc>Created with sketchtool.</desc>
    <defs>
        <filter x="-22.6%" y="-21.7%" width="145.3%" height="143.4%" filterUnits="objectBoundingBox" id="filter-1">
            <feOffset dx="0" dy="2" in="SourceAlpha" result="shadowOffsetOuter1"></feOffset>
            <feGaussianBlur stdDeviation="4.5" in="shadowOffsetOuter1" result="shadowBlurOuter1"></feGaussianBlur>
            <feColorMatrix values="0 0 0 0 0.961710989   0 0 0 0 0.65036732   0 0 0 0 0.138542295  0 0 0 0.592165647 0" type="matrix" in="shadowBlurOuter1" result="shadowMatrixOuter1"></feColorMatrix>
            <feMerge>
                <feMergeNode in="shadowMatrixOuter1"></feMergeNode>
                <feMergeNode in="SourceGraphic"></feMergeNode>
            </feMerge>
        </filter>
        <polygon id="path-2" points="0.120241855 0.0910648855 1.84551754 0.0910648855 1.84551754 34.2481431 0.120241855 34.2481431"></polygon>
        <polygon id="path-4" points="0 0.124778469 24.7601509 0.124778469 24.7601509 15.2407557 0 15.2407557"></polygon>
    </defs>
    <g id="ui-27/3/19" stroke="none" stroke-width="1" fill="none" fill-rule="evenodd">
        <g id="homepage" transform="translate(-904.000000, -1086.000000)">
            <g id="Group-88-Copy" filter="url(#filter-1)" transform="translate(912.000000, 1091.000000)">
                <path d="M71.2851122,76.7049355 L72.1519543,78.1793553 L51.5633076,90.0098553 C51.4138653,90.0956302 51.2640407,90.1844279 51.1130695,90.2743592 C50.448032,90.6692256 49.7642663,91.07505 49.0231698,91.2715385 C48.5882199,91.3879202 48.1012901,91.4445996 47.6128315,91.4445996 C47.1239906,91.4445996 46.6362964,91.3879202 46.2009643,91.2715385 C45.4591034,91.07505 44.7749555,90.668092 44.1095357,90.2732256 C43.9593289,90.1836721 43.8102688,90.0952523 43.6623553,90.0098553 L28.7953252,81.4644927 L12.6180946,72.1641607 C11.8387776,71.7145042 11.2111961,71.07705 10.7777751,70.3277485 L12.2756385,69.4813363 C12.5657325,69.9823821 12.9846297,70.4010538 13.4849367,70.6897408 L29.6629317,79.989695 L44.5299618,88.5358134 C44.6851372,88.6249889 44.8410771,88.7179431 44.9985457,88.8112752 C45.5856134,89.1600424 46.1401936,89.4895385 46.650438,89.6248134 C46.9305946,89.6996302 47.2634956,89.7393057 47.6128315,89.7393057 C47.9614029,89.7393057 48.2939217,89.6996302 48.5763716,89.6244355 C49.0835583,89.4895385 49.6377563,89.1604202 50.2244417,88.8124088 C50.3826748,88.718321 50.5397613,88.6249889 50.6964655,88.5350576 L71.2851122,76.7049355 M47.2310081,8.60124847 L47.2310081,6.89519885 C47.7072362,6.89519885 48.1853753,6.95074466 48.6084768,7.06183626 C49.0472487,7.1755729 49.4695858,7.34901183 49.8647863,7.57686298 L76.3565971,22.6819202 C76.8729568,22.9785424 77.4229505,23.2849889 77.987468,23.5993706 C79.8247299,24.6230004 81.8217538,25.7354279 83.3498114,26.9022676 C83.832537,27.2710615 84.2411147,27.7214737 84.5598741,28.2274317 L83.0952625,29.128634 C82.8816096,28.7893134 82.612537,28.4945805 82.2956886,28.2523706 C80.8658578,27.1607256 78.8871798,26.0581225 77.1408828,25.0855042 C76.5622237,24.7631874 76.016052,24.459008 75.4947237,24.159363 L48.9964154,9.0505271 C48.7346046,8.90013779 48.4567412,8.78602328 48.166265,8.71045076 C47.8975746,8.64016832 47.5650558,8.60124847 47.2310081,8.60124847" id="Fill-16" fill="#EAA13A"></path>
                <path d="M20.2983615,66.8428729 L19.8653227,67.5770599 C19.2450031,67.2196019 18.7458427,66.7125103 18.4010934,66.1162431 C18.0559618,65.5192202 17.8652412,64.8326439 17.8644768,64.1203729 C17.8553039,54.2547584 17.8503352,44.3933004 17.8503352,34.5280637 C17.8503352,33.7602469 18.0704856,33.0271935 18.4622462,32.4022088 C18.7156485,31.9997851 19.0424342,31.6411935 19.4265508,31.3479721 C20.5051347,30.5238538 21.8092199,29.8376553 23.0819643,29.1680828 C23.683938,28.851434 24.2794142,28.5385637 24.8401096,28.2162469 L44.9250094,16.693705 L45.3565194,17.4290256 L25.2720019,28.9511897 C24.697547,29.2814416 24.0814317,29.6052698 23.4863377,29.9185179 C22.2506673,30.5684416 20.9733365,31.2406592 19.9517011,32.0209454 C19.650141,32.2514416 19.3944455,32.5306821 19.1930232,32.849976 C18.8769392,33.3540447 18.7099154,33.9344416 18.7099154,34.5280637 C18.7099154,44.061537 18.7145019,54.0174607 18.7244392,64.1196172 C18.7252036,64.6720523 18.8715883,65.2165523 19.1471585,65.6941706 C19.4227287,66.1702775 19.8206046,66.5674111 20.2983615,66.8428729 M75.4888377,32.0209454 L76.0143703,31.3479721 C76.3984868,31.6411935 76.7237437,31.9997851 76.9775282,32.4022088 C77.3700533,33.0271935 77.5894392,33.7602469 77.5894392,34.5280637 C77.5894392,44.3933004 77.5848528,54.2547584 77.5749154,64.1203729 C77.5745332,64.8326439 77.3845771,65.5192202 77.0398277,66.1162431 C76.6943139,66.7125103 76.1940069,67.2196019 75.574834,67.5770599 L62.697948,74.9752317 L50.8648653,81.7726019 L50.4329731,81.0376592 L62.2656736,74.2402889 L75.1410307,66.8428729 C75.6191698,66.5670332 76.0178102,66.1695218 76.2933803,65.6945485 C76.5689505,65.2176859 76.714953,64.672808 76.7153352,64.1196172 C76.7252726,54.0677164 76.729859,44.1117927 76.729859,34.5280637 C76.729859,33.933308 76.5628352,33.3532889 76.2478979,32.8514874 C76.0449467,32.5299263 75.7896335,32.2506859 75.4888377,32.0209454" id="Fill-18" fill="#EAA13A"></path>
                <path d="M47.6126021,72.2508424 L47.6126021,73.9565141 C47.325948,73.9565141 47.0400583,73.9232622 46.784745,73.8552469 C46.3497951,73.7399989 45.9484793,73.5015676 45.5586297,73.2699378 C45.4707224,73.2181706 45.3835796,73.1660256 45.2964367,73.1161477 L36.5817688,68.1094683 L27.0981034,62.6610676 C26.6413678,62.3973195 26.2736861,62.0243691 26.0195194,61.5849149 C25.765735,61.1450828 25.6254655,60.6395027 25.6247011,60.1150294 C25.6178214,52.8487317 25.6139994,47.2858385 25.6139994,40.0202966 L27.3392751,40.0202966 C27.3392751,47.4490752 27.3430971,53.0131019 27.3499768,60.1135179 C27.3499768,60.3330561 27.4084543,60.5495714 27.5173828,60.7381248 C27.6251648,60.9244111 27.7807224,61.0797126 27.9653277,61.1862698 L37.4482287,66.6350485 L46.163661,71.6417279 C46.2576836,71.6953844 46.3520883,71.7516859 46.4472575,71.8079874 C46.7339117,71.9784034 47.0308853,72.1544874 47.2338365,72.2085218 C47.3355031,72.23535 47.4738615,72.2508424 47.6126021,72.2508424 M47.2453026,26.2241553 L46.8042375,24.5755408 C47.0526711,24.5105485 47.3324455,24.4780523 47.6126021,24.4780523 C47.8916122,24.4780523 48.1717688,24.5105485 48.4202024,24.5755408 C48.6774267,24.6420447 48.9250959,24.7436897 49.1567124,24.8770752 L64.4625144,33.6710714 C64.8756786,33.9087469 65.3136861,34.139621 65.7574267,34.3727622 C66.6945946,34.8658729 67.6546949,35.3710752 68.4500645,35.9779225 C68.7328966,36.1940599 68.9725395,36.457808 69.1590558,36.7540523 C69.4483853,37.2146668 69.6100583,37.7546324 69.6100583,38.3202927 C69.6100583,45.5858347 69.6062362,51.7155218 69.5993565,58.9818195 L67.8740808,58.9799302 C67.8817249,51.0569073 67.8847826,45.0715637 67.8847826,38.3202927 C67.8847826,38.0837508 67.818661,37.8528767 67.6948264,37.6560103 C67.6145633,37.5286706 67.513661,37.4183347 67.3959417,37.3280256 C66.7156159,36.8092202 65.8162863,36.3361363 64.9467688,35.8781668 C64.4992061,35.6427584 64.0367375,35.3994149 63.5952901,35.1458691 L48.2887237,26.3511172 C48.1912613,26.2948156 48.0880658,26.2528729 47.9779906,26.2241553 C47.8797638,26.1984607 47.7467563,26.183724 47.6126021,26.183724 C47.4776836,26.183724 47.3442939,26.1988385 47.2453026,26.2241553" id="Fill-20" fill="#EAA13A"></path>
                <path d="M34.46049,52.5794668 L33.6005276,52.5802225 C33.5997632,51.5773752 33.5986165,50.7422989 33.5978521,50.0028218 C33.5951767,47.3249095 33.5936479,45.8977225 33.5936479,42.2657073 C33.5936479,41.9048485 33.6968434,41.5602378 33.8810664,41.2666385 C33.9999323,41.0777073 34.1531967,40.9091805 34.3332155,40.7712607 C35.0792807,40.2014439 39.3978208,37.6935698 40.2176516,37.2219973 L40.6499261,37.9569401 C39.3248195,38.7190889 35.4897694,40.9617034 34.8591303,41.444234 C34.7605213,41.5194286 34.6768183,41.6108714 34.6118434,41.7144057 C34.5082657,41.8799095 34.4532281,42.0703523 34.4532281,42.2657073 C34.4532281,45.8973447 34.4547569,47.3245317 34.4574323,50.002066 L34.46049,52.5794668 M60.7707531,45.5712492 L61.6303333,45.5712492 C61.6303333,49.3623447 61.6288045,50.9410546 61.6257469,53.9261691 C61.6249825,54.5908294 61.624218,55.3253943 61.6234536,56.1691615 C61.6230714,56.5039477 61.5343997,56.8262645 61.3719624,57.1070164 C61.2099073,57.3870126 60.9752331,57.6254439 60.6843747,57.7935927 L54.6413233,61.2691729 L54.2090489,60.534608 L60.2505714,57.0594057 C60.4065113,56.9694744 60.5364612,56.8398676 60.625515,56.6856996 C60.7157155,56.5292645 60.7634912,56.3505355 60.7634912,56.1684057 L60.7657845,53.9254134 C60.7688421,50.9402989 60.7707531,49.3619668 60.7707531,45.5712492" id="Fill-22" fill="#EAA13A"></path>
                <path d="M47.6122581,56.2551252 C47.5304662,56.2551252 47.4494386,56.2456786 47.3768195,56.2264076 C47.225084,56.1859763 47.0878722,56.0934 46.9533358,56.0159382 L44.4758797,54.591774 L41.7794198,53.0417817 C41.6494699,52.966587 41.5451278,52.8607855 41.4732732,52.735713 C41.4010363,52.6106405 41.3609048,52.4666748 41.3609048,52.3174191 C41.3589937,50.2505107 41.3578471,48.184358 41.3578471,46.1170718 C41.3578471,45.9564802 41.4037118,45.8026901 41.485886,45.6715718 C41.5390125,45.5876863 41.6070451,45.5124916 41.6876905,45.4509 C42.0205915,45.1965985 42.4555414,45.0050221 42.821312,44.7945527 L47.173104,42.2931023 C47.2384612,42.2549382 47.3091692,42.2262206 47.3821704,42.2069496 C47.4528784,42.1884344 47.5323772,42.1793656 47.6122581,42.1793656 C47.6913747,42.1793656 47.7712556,42.1884344 47.8419637,42.2069496 C47.9149649,42.2262206 47.9856729,42.2549382 48.0510301,42.2931023 L52.4028221,44.7945527 C52.7685927,45.0050221 53.2035426,45.1965985 53.5364436,45.4509 C53.617089,45.5124916 53.6851216,45.5876863 53.7378659,45.6715718 C53.8204223,45.8026901 53.866287,45.9564802 53.866287,46.1170718 C53.866287,48.184358 53.8651404,50.2505107 53.8632293,52.3174191 C53.8632293,52.4666748 53.8230977,52.6106405 53.7512431,52.735713 C53.6786241,52.8607855 53.574282,52.966587 53.4443321,53.0417817 L50.7482544,54.591774 L48.2707982,56.0159382 C48.1358797,56.0934 47.9990501,56.1859763 47.8469323,56.2264076 C47.7746955,56.2456786 47.6936679,56.2551252 47.6122581,56.2551252 M47.6122581,54.421358 L49.8810301,53.1173542 L52.138718,51.8193962 C52.1402469,50.0778275 52.1410113,48.3370145 52.1410113,46.5958237 C52.0817694,46.5637053 52.0206165,46.5319649 51.9598459,46.4998466 C51.8230163,46.4272969 51.6808358,46.352858 51.5355977,46.2693504 L47.6122581,44.0135107 L43.6881541,46.2693504 C43.5432982,46.352858 43.4011178,46.4272969 43.2642882,46.4998466 C43.2035175,46.531587 43.1423647,46.5637053 43.0827406,46.5958237 C43.0831228,48.3370145 43.0838872,50.0782053 43.085416,51.8193962 L45.343104,53.1173542 L47.6122581,54.421358" id="Fill-24" fill="#EAA13A"></path>
                <g id="Group-28" transform="translate(46.629073, 0.286798)">
                    <mask id="mask-3" fill="white">
                        <use xlink:href="#path-2"></use>
                    </mask>
                    <g id="Clip-27"></g>
                    <path d="M0.120241855,19.5235935 C0.120241855,19.0523989 0.506651629,18.6707576 0.982879699,18.6707576 C1.45948997,18.6707576 1.84551754,19.0523989 1.84551754,19.5235935 L1.84551754,33.3949294 C1.84551754,33.8665019 1.45948997,34.2481431 0.982879699,34.2481431 C0.506651629,34.2481431 0.120241855,33.8665019 0.120241855,33.3949294 L0.120241855,19.5235935 M0.120241855,0.943711832 C0.120241855,0.472895038 0.506651629,0.0908759542 0.982879699,0.0908759542 C1.45948997,0.0908759542 1.84551754,0.472895038 1.84551754,0.943711832 L1.84551754,13.4785477 C1.84551754,13.9497424 1.45948997,14.3317615 0.982879699,14.3317615 C0.506651629,14.3317615 0.120241855,13.9497424 0.120241855,13.4785477 L0.120241855,0.94484542 L0.120241855,0.943711832" id="Fill-26" fill="#EAA13A" mask="url(#mask-3)"></path>
                </g>
                <path d="M46.7493145,84.6018481 C46.7493145,84.1310313 47.1357243,83.7490122 47.6119524,83.7490122 C48.0885627,83.7490122 48.4745902,84.1310313 48.4745902,84.6018481 L48.4745902,98.0560237 C48.4745902,98.5275962 48.0885627,98.9088595 47.6119524,98.9088595 C47.1357243,98.9088595 46.7493145,98.5275962 46.7493145,98.0560237 L46.7493145,84.6018481 M46.7493145,56.2542183 C46.7493145,55.7834015 47.1357243,55.4013824 47.6119524,55.4013824 C48.0885627,55.4013824 48.4745902,55.7834015 48.4745902,56.2542183 L48.4745902,72.8427641 C48.4745902,73.3139588 48.0885627,73.6959779 47.6119524,73.6959779 C47.1357243,73.6959779 46.7493145,73.3139588 46.7493145,72.8427641 L46.7493145,56.254974 L46.7493145,56.2542183" id="Fill-29" fill="#EAA13A"></path>
                <g id="Group-33" transform="translate(0.000000, 21.069240)">
                    <mask id="mask-5" fill="white">
                        <use xlink:href="#path-4"></use>
                    </mask>
                    <g id="Clip-32"></g>
                    <path d="M0.425547619,1.7129645 C0.0146766917,1.47453321 -0.122535088,0.951571374 0.119018797,0.545746947 C0.360572682,0.139166794 0.889162907,0.00389198473 1.30003383,0.242701145 C1.30041604,0.243079008 13.3230727,7.24185 24.3355602,13.6530447 C24.7456667,13.8918538 24.8824962,14.4148156 24.6405602,14.8202622 C24.3993885,15.2264645 23.870416,15.3617393 23.4599273,15.1225523 L0.42631203,1.71334237 L0.425547619,1.7129645" id="Fill-31" fill="#EAA13A" mask="url(#mask-5)"></path>
                </g>
                <path d="M47.216599,34.8416897 C46.8049637,34.604392 46.6658409,34.0821859 46.9058659,33.6756057 C47.1455088,33.2682698 47.6737168,33.1311057 48.0853521,33.3684034 C48.0861165,33.3687813 53.467188,36.4736782 58.3953459,39.3182279 C58.8069812,39.5555256 58.9457218,40.0777317 58.7056967,40.4846897 C58.4656717,40.8912698 57.9374637,41.0288118 57.5258283,40.7911363 L47.2173634,34.8420676 L47.216599,34.8416897" id="Fill-34" fill="#EAA13A"></path>
                <path d="M76.666948,32.4571878 C76.8718102,32.5758366 76.9409893,32.836184 76.8205946,33.0390962 C76.7009643,33.2412527 76.4372425,33.3096458 76.2323803,33.1909969 C76.2316159,33.1906191 65.6449054,27.0964511 55.2248365,21.0982603 C55.0199743,20.9799893 54.9507951,20.7200198 55.0700432,20.5171076 C55.1896736,20.3141954 55.452631,20.2458023 55.6578753,20.3636954 L76.6661836,32.4568099 L76.666948,32.4571878" id="Fill-36" fill="#EAA13A"></path>
                <path d="M46.7205727,7.02193397 C47.1295326,6.78047977 47.6592694,6.91273168 47.9034987,7.31704466 C48.1473459,7.72135763 48.0139561,8.24507519 47.6049962,8.48652939 C47.6019386,8.4884187 32.021713,17.6519645 21.5756541,23.6040561 C21.1632544,23.8390866 20.6354286,23.6988996 20.3976967,23.290808 C20.1599649,22.8827164 20.3017632,22.361266 20.7141629,22.1262355 C31.0306541,16.248205 46.5665439,7.11262099 46.7198083,7.02231183 L46.7205727,7.02193397" id="Fill-38" fill="#EAA13A"></path>
                <path d="M39.3101046,77.8851893 C39.515349,78.0030824 39.5856748,78.2630519 39.4664267,78.4659641 C39.3475608,78.6692542 39.0842212,78.7384031 38.8789768,78.6205099 C38.8782124,78.6201321 28.2911197,72.5259641 17.871433,66.5277733 C17.6661886,66.4095023 17.5966272,66.1495328 17.7166397,65.9469985 C17.8355056,65.7440863 18.0988452,65.6753153 18.3040896,65.7935863 L39.3093402,77.8848115 L39.3101046,77.8851893" id="Fill-40" fill="#EAA13A"></path>
                <path d="M64.9455075,62.7262111 C65.364787,62.5021385 65.8880263,62.6559286 66.1150564,63.070066 C66.3417043,63.4842034 66.1861466,64.0014973 65.7672494,64.2259477 C65.766485,64.2263256 56.8217293,69.0232912 48.0180075,74.0231691 C47.6048434,74.2581996 47.0773997,74.1172569 46.8400501,73.7087874 C46.6030827,73.3003179 46.7456454,72.7788676 47.1584273,72.5442149 C55.8792105,67.591192 64.8541604,62.7753332 64.9447431,62.7265889 L64.9455075,62.7262111" id="Fill-42" fill="#EAA13A"></path>
                <path d="M47.4297168,24.4023286 C47.8436454,24.1695653 48.3703246,24.3127752 48.6057632,24.7223782 C48.8408195,25.1316034 48.6959637,25.6522981 48.2820351,25.8850615 C48.2816529,25.8854393 40.6459511,30.2013859 33.1314085,34.4489393 C32.7174799,34.6828363 32.1908008,34.5407599 31.9542155,34.1319126 C31.7180125,33.7230653 31.8613396,33.2019927 32.2752682,32.9680958 L47.4289524,24.4027065 L47.4297168,24.4023286" id="Fill-44" fill="#EAA13A"></path>
                <path d="M11.9536685,53.7248817 C11.9521397,54.1960763 11.5649655,54.576584 11.0887375,54.5750725 C10.6121272,54.5739389 10.226864,54.1907863 10.2283929,53.7199695 C10.2283929,53.7188359 10.2734931,40.1909771 10.3178289,28.2705458 C10.31974,27.799729 10.7069142,27.4192214 11.1835244,27.4207328 C11.6597525,27.4226221 12.0446335,27.8057748 12.0427224,28.2765916 C11.9987688,40.196645 11.9536685,53.7245038 11.9536685,53.724126 L11.9536685,53.7248817" id="Fill-46" fill="#EAA13A"></path>
                <path d="M85.2281222,70.3427118 C85.2281222,70.8135286 84.8420946,71.1955477 84.3654843,71.1955477 C83.8888741,71.1955477 83.5028465,70.8135286 83.5028465,70.3427118 C83.5028465,70.3415782 83.5479467,56.8137195 83.5922826,44.8932882 C83.5941936,44.4224714 83.9813678,44.0419637 84.4575959,44.0434752 C84.9342061,44.0453645 85.3190871,44.4285172 85.3171761,44.8997118 C85.2732224,56.8193874 85.2281222,70.3472462 85.2281222,70.3419561 L85.2281222,70.3427118" id="Fill-48" fill="#EAA13A"></path>
                <path d="M70.6673916,63.7592496 C70.2561385,63.521574 70.1177801,62.9989901 70.3578051,62.5927878 C70.5982124,62.1858298 71.1264204,62.0490435 71.5376736,62.2867191 C82.6384505,68.7005588 94.4443966,75.7197344 94.4470721,75.7216237 C94.8552675,75.9642115 94.9875107,76.4883069 94.7417525,76.8918641 C94.4963766,77.2954214 93.9662575,77.4261618 93.558062,77.1831962 C93.4399605,77.1132916 81.6321034,70.0948718 70.6673916,63.7592496" id="Fill-50" fill="#EAA13A"></path>
                <path d="M93.4582299,21.5685481 C93.8679543,21.3286053 94.3973089,21.4627466 94.6400094,21.8678153 C94.8830921,22.2732618 94.7474091,22.7962237 94.3373026,23.0357885 C94.3365382,23.0365443 81.3942951,30.6032427 69.5394267,37.5336206 C69.1297024,37.7735634 68.6003477,37.6390443 68.3580294,37.2339756 C68.1153289,36.828529 68.2513941,36.3055672 68.6611184,36.0656244 L93.4574655,21.568926 L93.4582299,21.5685481" id="Fill-52" fill="#EAA13A"></path>
                <path d="M26.2904649,60.9310237 C26.7024825,60.6948595 27.2303083,60.8335351 27.4691867,61.240871 C27.7080652,61.6482069 27.5677957,62.170413 27.1557782,62.4065771 C27.1546316,62.406955 12.3300263,70.9636534 1.31562782,77.3710695 C0.905139098,77.6102565 0.376166667,77.4746038 0.134612782,77.0687794 C-0.106558897,76.6625771 0.0302706767,76.1399931 0.440759398,75.901184 C11.3313233,69.5655618 26.1368183,61.0198214 26.2897005,60.9314015 L26.2904649,60.9310237" id="Fill-54" fill="#EAA13A"></path>
                <path d="M16.349032,25.5838672 C15.3923716,23.9617031 15.9469518,21.880058 17.5885244,20.9342679 C19.2297149,19.9888557 21.3356673,20.5371344 22.2923277,22.1592985 C23.2493703,23.7814626 22.6944079,25.8627298 21.0532174,26.8085198 C19.4120269,27.7543099 17.3060746,27.2056534 16.349032,25.5838672" id="Fill-56" fill="#EAA13A"></path>
                <path d="M73.9560789,34.1783897 C72.9994185,32.5562256 73.5539987,30.4749584 75.1951892,29.5291683 C76.8363797,28.5833782 78.9427143,29.1320347 79.8993747,30.7541989 C80.8560351,32.3759851 80.3014549,34.4576302 78.6602644,35.4034202 C77.0186917,36.3492103 74.9127393,35.8005538 73.9560789,34.1783897" id="Fill-58" fill="#EAA13A"></path>
                <path d="M39.5325482,38.1424706 C38.8419029,36.9714744 39.2424543,35.4687149 40.4272914,34.786295 C41.6117462,34.1038752 43.1321598,34.4994973 43.8231873,35.6704935 C44.5138327,36.8414897 44.1128991,38.3442492 42.9284442,39.0266691 C41.7436071,39.7090889 40.2231936,39.3134668 39.5325482,38.1424706" id="Fill-60" fill="#EAA13A"></path>
                <path d="M51.4742538,62.0378588 C50.7836084,60.8668626 51.1841598,59.3641031 52.3689969,58.6816832 C53.5534518,57.9992634 55.0738653,58.3948855 55.7648929,59.5658817 C56.455156,60.7368779 56.0549868,62.2396374 54.870532,62.9220573 C53.6853127,63.604855 52.1652813,63.208855 51.4742538,62.0378588" id="Fill-62" fill="#EAA13A"></path>
                <path d="M16.349032,67.8020771 C15.3923716,66.179913 15.9469518,64.0982679 17.5885244,63.1528557 C19.2297149,62.2070656 21.3356673,62.7557221 22.2923277,64.3775084 C23.2493703,65.9996725 22.6944079,68.0813176 21.0532174,69.0271076 C19.4120269,69.9725198 17.3060746,69.4238634 16.349032,67.8020771" id="Fill-64" fill="#EAA13A"></path>
                <path d="M70.5169555,78.0970191 C69.5599129,76.474855 70.1148753,74.3932099 71.7560658,73.4477977 C73.3972563,72.5020076 75.5032086,73.0506641 76.4602513,74.6724504 C77.4169117,76.2946145 76.8619492,78.3762595 75.2207588,79.3220496 C73.5795683,80.2674618 71.4736159,79.7191832 70.5169555,78.0970191" id="Fill-66" fill="#EAA13A"></path>
                <path d="M47.5890965,19.6766279 L47.6009449,18.8241698 C46.4581504,18.8086775 45.5435326,17.8889599 45.544297,16.7693531 L45.544297,16.7406355 L45.544297,16.7398798 C45.5595852,15.6164943 46.4906378,14.7126469 47.6292281,14.7130248 L47.6594223,14.7130248 L47.6598045,14.7134027 C48.8029812,14.7285172 49.7168346,15.6486126 49.7160702,16.7678416 C49.7160702,16.777666 49.7160702,16.7874905 49.715688,16.7980706 L49.715688,16.7973149 C49.7011642,17.9210782 48.7701115,18.8245477 47.6311391,18.8241698 C47.6212018,18.8241698 47.6112644,18.8241698 47.6005627,18.8241698 L47.6009449,18.8241698 L47.5890965,19.6766279 L47.5776303,20.5294637 C47.5952118,20.5298416 47.6127932,20.5298416 47.6311391,20.5298416 C49.7107193,20.5294637 51.4107694,18.8823607 51.4409637,16.8211202 L51.4409637,16.8207424 C51.4413459,16.8033607 51.4413459,16.7856011 51.4413459,16.7678416 C51.4405815,14.7126469 49.7688145,13.0372042 47.6835013,13.0081088 L47.6838835,13.0081088 C47.6655376,13.0077309 47.6471917,13.0073531 47.6292281,13.0073531 C45.5500301,13.0081088 43.8499799,14.6552118 43.8197857,16.7160744 L43.8197857,16.7232538 L43.8197857,16.7153187 C43.8194035,16.733834 43.8194035,16.7519714 43.8194035,16.7693531 C43.8201679,18.8245477 45.4919348,20.4999905 47.5768659,20.5294637 L47.5776303,20.5294637 L47.5890965,19.6766279 Z" id="Fill-68" fill="#EAA13A"></path>
                <path d="M10.928364,59.5582866 L10.9402124,58.7058286 C9.79703571,58.6903363 8.88280013,57.7702408 8.88356454,56.6510118 L8.88356454,56.6215385 C8.89847055,55.4977752 9.82990539,54.5943057 10.9684956,54.5946836 C10.9791974,54.5946836 10.9887525,54.5946836 10.9979254,54.5946836 L10.9986898,54.5946836 C12.1418665,54.610176 13.0561021,55.5298935 13.0553377,56.6495004 C13.0553377,56.6593248 13.0549555,56.6691492 13.0549555,56.6789737 L13.0549555,56.6789737 C13.0400495,57.8023592 12.1093791,58.7062065 10.9704066,58.7058286 C10.9604693,58.7058286 10.950532,58.7058286 10.939448,58.7054508 L10.9402124,58.7058286 L10.928364,59.5582866 L10.9168979,60.4107447 C10.9344793,60.4111225 10.9520608,60.4115004 10.9704066,60.4115004 C13.0499868,60.4107447 14.750037,58.7636416 14.7802312,56.702779 L14.7802312,56.702779 C14.7806134,56.6850195 14.7806134,56.6672599 14.7806134,56.6495004 C14.779849,54.5943057 13.1080821,52.918863 11.0227688,52.8893897 L11.0235332,52.8893897 C11.0044229,52.8890118 10.9860771,52.8890118 10.9684956,52.8890118 C8.88929762,52.8893897 7.18924749,54.5364927 7.15905326,56.5977332 C7.15867105,56.6154927 7.15867105,56.6332523 7.15867105,56.6510118 C7.15905326,58.7062065 8.83120238,60.3816492 10.9165157,60.4107447 L10.9168979,60.4107447 L10.928364,59.5582866 Z" id="Fill-70" fill="#EAA13A"></path>
                <path d="M84.465584,44.3187103 L84.4774323,43.4658744 C83.3346378,43.4503821 82.4200201,42.5306645 82.4207845,41.4114355 C82.4207845,41.4012332 82.4207845,41.3917866 82.4211667,41.3830958 L82.4211667,41.3804508 L82.4211667,41.3815844 C82.4360727,40.2581989 83.3671253,39.3543515 84.5057155,39.3551073 C84.5164173,39.3551073 84.5259724,39.3551073 84.5359098,39.3551073 L84.540114,39.3551073 L84.536292,39.3551073 C85.6790865,39.3705996 86.5933221,40.2903172 86.5925576,41.4095462 C86.5925576,41.4193706 86.5925576,41.4295729 86.5921754,41.4397752 L86.5921754,41.4393973 C86.5772694,42.5627828 85.646599,43.4666302 84.5076266,43.4658744 C84.4976892,43.4658744 84.4877519,43.4658744 84.4774323,43.4658744 L84.465584,44.3187103 L84.4537356,45.1711683 C84.4716992,45.1715462 84.4892807,45.1715462 84.5076266,45.1715462 C86.5872068,45.1711683 88.2872569,43.5240653 88.3174511,41.4632027 L88.3174511,41.4624469 C88.3178333,41.4454431 88.3178333,41.4276836 88.3178333,41.4095462 C88.3170689,39.3543515 86.645302,37.6792866 84.5599887,37.6498134 L84.5603709,37.6498134 C84.5420251,37.6494355 84.5236792,37.6494355 84.5057155,37.6494355 C82.4265175,37.6498134 80.7264674,39.2969164 80.6962732,41.357779 L80.6962732,41.3562676 C80.695891,41.3755385 80.695891,41.3940538 80.695891,41.4114355 C80.6966554,43.4666302 82.3684223,45.1420729 84.4537356,45.1711683 L84.465584,44.3187103 Z" id="Fill-72" fill="#EAA13A"></path>
                <path d="M47.5890965,84.2974042 L47.6009449,83.4449462 C46.4581504,83.4294538 45.5435326,82.5097363 45.544297,81.3905073 L45.544297,81.3614118 L45.5446792,81.3546103 L45.544297,81.361034 C45.5595852,80.2372706 46.4906378,79.3338011 47.6292281,79.334179 L47.6586579,79.334179 L47.6598045,79.334179 C48.8029812,79.3492935 49.7168346,80.2693889 49.7160702,81.3886179 C49.7160702,81.3984424 49.7160702,81.4086447 49.715688,81.4188469 L49.715688,81.4180912 C49.7011642,82.5418546 48.7701115,83.445324 47.6311391,83.4449462 L47.6005627,83.4449462 L47.6009449,83.4449462 L47.5890965,84.2974042 L47.5776303,85.1506179 L47.6311391,85.1506179 C49.7107193,85.1506179 51.4107694,83.503137 51.4409637,81.4422744 L51.4409637,81.4415187 C51.4413459,81.424137 51.4413459,81.4067553 51.4413459,81.3886179 C51.4405815,79.3338011 49.7688145,77.6579805 47.6835013,77.6288851 L47.6842657,77.6288851 C47.6655376,77.6285073 47.6471917,77.6285073 47.6292281,77.6285073 C45.5500301,77.6288851 43.8499799,79.2759882 43.8197857,81.3368508 L43.8197857,81.336095 C43.8194035,81.3546103 43.8194035,81.3727477 43.8194035,81.3905073 C43.8201679,83.4457019 45.4919348,85.1211447 47.5768659,85.1506179 L47.5776303,85.1506179 L47.5890965,84.2974042 Z" id="Fill-74" fill="#EAA13A"></path>
                <path d="M26.5289994,40.5773416 L26.5408477,39.7245057 C25.3976711,39.7090134 24.4834355,38.7892958 24.4841999,37.6700668 C24.4841999,37.6602424 24.4841999,37.6504179 24.4845821,37.6409714 L24.4845821,37.6405935 C24.4994881,36.5168302 25.4305407,35.6129828 26.569131,35.6133607 C26.5798327,35.6133607 26.5893878,35.6133607 26.598943,35.6137385 L26.5997074,35.6137385 C27.7425019,35.6288531 28.6567375,36.5489485 28.6559731,37.6685553 C28.6559731,37.6780019 28.6555909,37.6882042 28.6555909,37.6980286 L28.6555909,37.6976508 C28.6406848,38.8214141 27.7100144,39.7252615 26.571042,39.7245057 C26.5611046,39.7245057 26.5511673,39.7245057 26.5404655,39.7245057 L26.5408477,39.7245057 L26.5289994,40.5773416 L26.5175332,41.4297996 C26.5351147,41.4301775 26.5526961,41.4301775 26.571042,41.4301775 C28.6506222,41.4297996 30.3506723,39.7826966 30.3808665,37.721834 L30.3808665,37.7214561 C30.3812487,37.7040744 30.3812487,37.6863149 30.3812487,37.6685553 C30.3804843,35.6129828 28.7087174,33.9379179 26.6234041,33.9084447 L26.6241685,33.9084447 C26.6054405,33.9080668 26.5870946,33.9080668 26.569131,33.9080668 C24.489933,33.9084447 22.7898828,35.5555477 22.7596886,37.6164103 L22.7596886,37.6164103 C22.7593064,37.6341698 22.7593064,37.6523073 22.7593064,37.6700668 C22.7600708,39.7252615 24.4318377,41.4007042 26.517151,41.4297996 L26.5175332,41.4297996 L26.5289994,40.5773416 Z" id="Fill-76" fill="#EAA13A"></path>
                <path d="M34.0592506,55.3228626 L34.0657481,54.8977672 C33.4385489,54.8898321 32.9355664,54.3834962 32.9359486,53.765313 L32.9359486,53.7494427 L32.9359486,53.7483092 L32.9359486,53.748687 C32.9443571,53.1286145 33.4565125,52.6313473 34.0810363,52.6313473 L34.0967068,52.6317252 L34.0978534,52.6317252 C34.7246704,52.6400382 35.2276529,53.146374 35.2276529,53.7641794 L35.2276529,53.7808053 L35.2272707,53.7842061 L35.2276529,53.7808053 C35.2188622,54.4012557 34.7067068,54.898145 34.082183,54.898145 L34.0649837,54.8977672 L34.0657481,54.8977672 L34.0592506,55.3228626 L34.0538997,55.747958 C34.0634549,55.747958 34.0722456,55.747958 34.082183,55.747958 C35.1772018,55.747958 36.0715627,54.8784962 36.0872331,53.7925191 L36.0872331,53.7925191 L36.0872331,53.7641794 C36.0872331,52.6816031 35.2081604,51.7974046 34.1097018,51.7819122 L34.1108484,51.7819122 C34.0997644,51.7819122 34.0902093,51.7815344 34.0810363,51.7815344 C32.9856353,51.7819122 32.0920388,52.651374 32.0763684,53.7373511 L32.0763684,53.7365954 C32.0763684,53.7464198 32.0759862,53.7562443 32.0759862,53.765313 C32.0763684,54.8482672 32.9550589,55.7320878 34.0535175,55.747958 L34.0538997,55.747958 L34.0592506,55.3228626 Z" id="Fill-78" fill="#EAA13A"></path>
                <path d="M54.5038822,21.6991752 C53.6336003,21.6870836 52.9379862,20.9801027 52.9502168,20.1193317 C52.9624474,19.2589385 53.6779361,18.5712286 54.5478358,18.5833202 C55.4181178,18.5954118 56.1133496,19.3027706 56.1015013,20.1631637 C56.0888885,21.0235569 55.373782,21.7116447 54.5038822,21.6991752" id="Fill-80" fill="#EAA13A"></path>
                <path d="M39.3138503,79.8794725 C38.4439505,79.8673809 37.7483365,79.1600221 37.760567,78.299629 C37.7727976,77.4392359 38.4879041,76.7511481 39.3578039,76.7632397 C40.2280858,76.7753313 40.9236999,77.4826901 40.9114693,78.3434611 C40.8992387,79.2038542 40.1841322,79.8915641 39.3138503,79.8794725" id="Fill-82" fill="#EAA13A"></path>
                <path d="M61.1909881,45.9725771 L61.1971034,45.5474817 C60.5699041,45.5391687 60.0673039,45.0328328 60.0676861,44.4146496 L60.0676861,44.3995351 L60.0676861,44.3984015 C60.0760946,43.778329 60.5878678,43.280684 61.2127738,43.2814397 L61.2288264,43.2814397 L61.2292086,43.2814397 C61.8560257,43.2897527 62.3593904,43.7960885 62.3593904,44.4138939 L62.3590081,44.4305198 L62.3590081,44.4369435 L62.3590081,44.430142 C62.3505996,45.0505924 61.838062,45.5478595 61.2139204,45.5474817 L61.1971034,45.5474817 L61.1909881,45.9725771 L61.1848728,46.3976725 C61.1948102,46.3976725 61.2039831,46.3976725 61.2139204,46.3976725 C62.3089392,46.3972947 63.2029179,45.5282107 63.2189706,44.4422336 L63.2189706,44.4418557 L63.2189706,44.4138939 C63.2185883,43.3313176 62.3395157,42.4471191 61.2414392,42.4312489 L61.2418214,42.4312489 C61.2315019,42.4312489 61.2219467,42.4312489 61.2127738,42.4312489 C60.1173728,42.4316267 59.2237763,43.3007107 59.2081059,44.3866878 L59.2081059,44.3859321 C59.2077237,44.3965122 59.2077237,44.4059588 59.2077237,44.4146496 C59.2081059,45.4976038 60.0867964,46.3818023 61.1848728,46.3976725 L61.1909881,45.9725771 Z" id="Fill-84" fill="#EAA13A"></path>
                <path d="M68.5536805,64.2502065 L68.5655288,63.3973706 C67.4227343,63.3822561 66.5081165,62.4625385 66.508881,61.3429317 C66.508881,61.3327294 66.508881,61.3232828 66.5092632,61.314592 L66.5092632,61.3134584 C66.5241692,60.189695 67.4552218,59.2862256 68.593812,59.2866034 C68.6045138,59.2866034 68.6140689,59.2866034 68.6236241,59.2866034 L68.6243885,59.2866034 C69.7675652,59.3020958 70.6814185,60.2218134 70.6806541,61.3414202 C70.6806541,61.3512447 70.6806541,61.3610691 70.6802719,61.3716492 L70.6802719,61.3708935 C70.6653659,62.494279 69.7346955,63.3981263 68.5957231,63.3977485 C68.5857857,63.3977485 68.5758484,63.3977485 68.5651466,63.3973706 L68.5655288,63.3973706 L68.5536805,64.2502065 L68.5422143,65.1030424 C68.5601779,65.1030424 68.5773772,65.1034202 68.5957231,65.1034202 C70.6753033,65.1030424 72.3753534,63.4555615 72.4055476,61.3946989 L72.4055476,61.394321 C72.4059298,61.3769393 72.4059298,61.3591798 72.4059298,61.3414202 C72.4051654,59.2862256 70.7333985,57.6107828 68.6480852,57.5813095 L68.6492318,57.5813095 C68.6301216,57.5813095 68.6117757,57.5809317 68.593812,57.5809317 C66.514614,57.5813095 64.8145639,59.2284126 64.7843697,61.2896531 L64.7843697,61.2881416 C64.7839875,61.3070347 64.7839875,61.32555 64.7839875,61.3429317 C64.7847519,63.3981263 66.4565188,65.0735691 68.5418321,65.1030424 L68.5422143,65.1030424 L68.5536805,64.2502065 Z" id="Fill-86" fill="#EAA13A"></path>
            </g>
        </g>
    </g>
</svg>