<?xml version="1.0" encoding="UTF-8"?>
<svg width="243px" height="69px" viewBox="0 0 243 69" version="1.1" xmlns="http://www.w3.org/2000/svg" xmlns:xlink="http://www.w3.org/1999/xlink">
    <!-- Generator: sketchtool 53.2 (72643) - https://sketchapp.com -->
    <title>41614830-C23E-4171-A6B7-AB39A9D2FC0C</title>
    <desc>Created with sketchtool.</desc>
    <defs>
        <polygon id="path-1" points="0.0394875 0.0829316794 21.6845526 0.0829316794 21.6845526 22.2482599 0.0394875 22.2482599"></polygon>
        <polygon id="path-3" points="0.0838243421 0.0634694656 1.28656776 0.0634694656 1.28656776 23.8699179 0.0838243421 23.8699179"></polygon>
        <polygon id="path-5" points="0 0.0869668118 17.2610724 0.0869668118 17.2610724 10.6223449 0 10.6223449"></polygon>
    </defs>
    <g id="Symbols" stroke="none" stroke-width="1" fill="none" fill-rule="evenodd">
        <g id="header" transform="translate(-149.000000, -9.000000)">
            <g id="Group-53">
                <g id="Group-88" transform="translate(149.000000, 9.000000)">
                    <g id="Group-3" transform="translate(221.151316, 22.322027)">
                        <mask id="mask-2" fill="white">
                            <use xlink:href="#path-1"></use>
                        </mask>
                        <g id="Clip-2"></g>
                        <path d="M0.488184868,4.32537824 C0.190563158,5.38065687 0.0394875,6.70034771 0.0394875,8.24863397 L0.0394875,14.0822943 C0.0394875,15.6321607 0.190563158,16.9581721 0.488451316,18.0242485 C0.769819737,19.0334393 1.21292171,19.8556454 1.80603355,20.469008 C2.39541513,21.0786836 3.17637237,21.5277103 4.12812237,21.8045004 C5.14115526,22.0986721 6.40571447,22.2482599 7.88716184,22.2482599 L20.8999184,22.2482599 C21.3331618,22.2482599 21.6846059,21.8950958 21.6846059,21.4600271 L21.6846059,19.7966531 C21.6846059,19.361321 21.3331618,19.0084202 20.8999184,19.0084202 L8.07207632,19.0084202 C7.18933618,19.0084202 6.46966184,18.926779 5.87228684,18.7587561 C5.20243816,18.5709813 4.65595461,18.2402027 4.24695789,17.7753744 C3.85181645,17.3263477 3.56884934,16.7293134 3.40658289,16.0011263 C3.26083618,15.3498401 3.18729671,14.5331645 3.18729671,13.5734851 L3.18729671,8.75744313 C3.18729671,7.78433244 3.25897105,6.99451947 3.40738224,6.34323321 C3.56964868,5.62874084 3.85208289,5.03855382 4.24669145,4.5895271 C4.65595461,4.12522557 5.20270461,3.79418359 5.87228684,3.60614542 C6.47205987,3.43812252 7.19120132,3.3564813 8.07207632,3.3564813 L20.8999184,3.3564813 C21.3331618,3.3564813 21.6846059,3.00358053 21.6846059,2.56824847 L21.6846059,0.871164504 C21.6846059,0.435832443 21.3331618,0.0829316794 20.8999184,0.0829316794 L7.88716184,0.0829316794 C6.40971118,0.0829316794 5.14728355,0.237259924 4.13531645,0.541439313 C3.18036908,0.829027099 2.39701382,1.28463779 1.8063,1.89563015 C1.21265526,2.50978282 0.769020395,3.32724847 0.488184868,4.32537824" id="Fill-1" fill="#EAA13A" mask="url(#mask-2)"></path>
                    </g>
                    <path d="M202.607245,41.1826763 C201.942192,40.9964817 201.392512,40.6686 200.974722,40.2087756 C200.561462,39.7544817 200.275031,39.1498099 200.123423,38.4124053 C199.989933,37.7645427 199.921988,37.225974 199.921988,36.2942107 L199.921988,36.0563977 C199.921988,35.4338176 200.424775,34.9289588 201.044265,34.9289588 L217.23414,34.9289588 C217.667383,34.9289588 218.018561,34.576058 218.018561,34.140726 L218.018561,32.5966534 C218.018561,32.1613214 217.667383,31.8084206 217.23414,31.8084206 L201.044265,31.8084206 C200.424775,31.8084206 199.921988,31.3035618 199.921988,30.6809817 C199.921988,29.7494817 199.989933,29.210913 200.123423,28.5625237 C200.275031,27.8253824 200.561462,27.2212374 200.974722,26.7664168 C201.392245,26.3071191 201.94166,25.9795008 202.607245,25.792516 C203.207018,25.6244931 203.92616,25.5428519 204.807035,25.5428519 L217.419054,25.5428519 C217.852298,25.5428519 218.203475,25.1899511 218.203475,24.7546191 L218.203475,23.1931649 C218.203475,22.7578328 217.852298,22.4049321 217.419054,22.4049321 L204.714044,22.4049321 C203.236594,22.4049321 201.974433,22.5592603 200.962465,22.8634397 C200.007785,23.1510275 199.224429,23.6066382 198.633449,24.2178939 C198.039538,24.8323099 197.595903,25.6495122 197.315334,26.6473786 C197.017446,27.7026573 196.866903,29.0226115 196.866903,30.5706344 L196.866903,36.4042947 C196.866903,37.9538977 197.017712,39.2799092 197.315867,40.3462489 C197.596436,41.354913 198.039804,42.1773824 198.633449,42.7910084 C199.222831,43.400684 200.004054,43.8497107 200.955804,44.1265008 C201.968304,44.4206725 203.232597,44.5702603 204.714044,44.5702603 L217.419054,44.5702603 C217.852298,44.5702603 218.203475,44.2170962 218.203475,43.7820275 L218.203475,42.2203099 C218.203475,41.7849779 217.852298,41.4320771 217.419054,41.4320771 L204.807035,41.4320771 C203.923762,41.4320771 203.204087,41.3504359 202.607245,41.1826763" id="Fill-4" fill="#EAA13A"></path>
                    <path d="M193.648725,36.8539798 C193.648725,35.1874454 193.260245,33.9101553 192.494741,33.057663 C191.738564,32.2172851 190.608028,31.8082889 189.038386,31.8082889 L177.477501,31.8082889 C176.759426,31.8082889 175.090133,31.5465103 175.090133,29.120976 L175.090133,28.2302966 C175.090133,27.4744569 175.265189,26.8500332 175.611037,26.3746706 C175.886811,25.995434 176.440222,25.5429836 177.508409,25.5429836 L192.062564,25.5429836 C192.495807,25.5429836 192.846985,25.1898195 192.846985,24.7547508 L192.846985,23.1932966 C192.846985,22.7579645 192.495807,22.4050637 192.062564,22.4050637 L176.614212,22.4050637 C174.989149,22.4050637 173.79813,22.8274912 173.074459,23.6610218 C172.312686,24.5380065 171.942324,25.6775599 171.942324,27.144995 L171.942324,29.6210943 C171.942324,31.2886821 172.330537,32.5657088 173.096041,33.4168844 C173.851686,34.2575256 174.982488,34.9290905 176.552662,34.9290905 L188.113547,34.9290905 C188.831357,34.9290905 190.501182,35.1911324 190.501182,37.6166668 L190.501182,38.7446324 C190.501182,39.5004721 190.325593,40.1246324 189.979745,40.6002584 C189.703972,40.9797584 189.150827,41.4319454 188.082906,41.4319454 L172.757653,41.4319454 C172.324409,41.4319454 171.972965,41.7848462 171.972965,42.2201782 L171.972965,43.7818958 C171.972965,44.2172279 172.324409,44.5701286 172.757653,44.5701286 L188.976837,44.5701286 C190.601633,44.5701286 191.792386,44.1474378 192.516324,43.3139073 C193.278363,42.4366592 193.648725,41.2968424 193.648725,39.829934 L193.648725,36.8539798 Z" id="Fill-6" fill="#EAA13A"></path>
                    <path d="M147.892118,37.1394607 C147.892118,36.2840714 148.126592,35.8642775 148.558769,35.3886515 C149.019457,34.8819492 149.754585,34.6249111 150.743371,34.6249111 L164.249588,34.6249111 C164.682832,34.6249111 165.03401,34.9778118 165.03401,35.4131439 L165.03401,39.2481744 C165.03401,39.9610866 164.903983,40.4580447 164.625279,40.8130523 C164.30794,41.2144111 163.82194,41.416934 163.179269,41.416934 L150.743371,41.416934 C149.754052,41.416934 149.018924,41.1596324 148.558237,40.6524034 C148.116467,40.1672966 147.892118,39.7111592 147.892118,38.7801859 L147.892118,37.1394607 Z M145.329427,43.166163 C145.678473,43.5293347 146.157546,43.8090218 146.753588,43.9975866 C147.399457,44.2022164 148.232638,44.3062431 149.230217,44.3062431 L166.795493,44.3062431 C167.26524,44.3062431 167.642263,44.2680561 167.916171,44.1922088 C168.109079,44.139537 168.254026,44.0536821 168.359806,43.9301668 C168.479707,43.7903233 168.570299,43.5754225 168.628651,43.2907317 C168.647036,43.2022431 168.662756,43.107434 168.676878,43.025266 C168.693931,42.9257164 168.715246,42.8345943 168.741625,42.7516363 L168.741625,31.5728462 C168.741625,28.7878271 168.622256,27.2295332 168.328631,26.1942698 C168.073375,25.2917393 167.652388,24.5485408 167.077927,23.9846897 C166.500536,23.4195218 165.702526,22.9936706 164.706279,22.7195141 C163.646085,22.4282393 162.312783,22.2807584 160.743674,22.2807584 L145.706983,22.2807584 C145.27374,22.2807584 144.922296,22.6333958 144.922296,23.0687279 L144.922296,24.7876706 C144.922296,25.2230027 145.27374,25.5759034 145.706983,25.5759034 L160.227033,25.5759034 C161.113237,25.5759034 161.830246,25.6506973 162.417496,25.8042355 C163.064164,25.9741019 163.589598,26.2511553 163.980477,26.6272317 C164.378283,27.0101553 164.661783,27.5081668 164.82245,28.1075714 C164.978588,28.6940714 165.03401,29.3598424 165.03401,29.9774187 L165.03401,30.7487966 C165.03401,31.1841286 164.682832,31.5370294 164.249588,31.5370294 L149.230217,31.5370294 C148.23397,31.5370294 147.400789,31.6407927 146.753588,31.8454225 C146.219894,32.0150256 145.728033,32.5254149 145.333158,32.9359912 C144.975319,33.3078538 144.729921,33.7492431 144.579644,34.2888653 C144.415513,34.8801057 144.332115,35.5666821 144.332115,36.3298958 L144.332115,38.0156553 C144.332115,39.0977966 144.432832,41.1327698 144.584707,41.7340179 C144.734184,42.3265752 144.984911,42.8085218 145.329427,43.166163 L145.329427,43.166163 Z" id="Fill-8" fill="#000000"></path>
                    <path d="M98.7294345,40.9186855 C98.0646484,40.7327542 97.5149674,40.4048725 97.097178,39.9450481 C96.6839181,39.4904908 96.3974872,38.8860824 96.2458786,38.1484145 C96.1123885,37.5005519 96.0444444,36.9622466 96.0444444,36.0302198 L96.0444444,35.7926702 C96.0444444,35.1698267 96.5469641,34.6649679 97.1667207,34.6649679 L113.356329,34.6649679 C113.789573,34.6649679 114.141017,34.3123305 114.141017,33.8769985 L114.141017,32.3326626 C114.141017,31.8973305 113.789573,31.5444298 113.356329,31.5444298 L97.1667207,31.5444298 C96.5469641,31.5444298 96.0444444,31.0398344 96.0444444,30.4169908 C96.0444444,29.4854908 96.1123885,28.9471855 96.2458786,28.2987962 C96.3974872,27.561655 96.6839181,26.9572466 97.097178,26.502426 C97.514701,26.0433916 98.063849,25.7155099 98.7294345,25.5285252 C99.329474,25.3605023 100.048615,25.2788611 100.929224,25.2788611 L113.54151,25.2788611 C113.974754,25.2788611 114.325931,24.9259603 114.325931,24.4906282 L114.325931,22.929174 C114.325931,22.4941053 113.974754,22.1409412 113.54151,22.1409412 L100.8365,22.1409412 C99.3590497,22.1409412 98.0968885,22.2955328 97.0849214,22.5997122 C96.1302405,22.8870366 95.3468852,23.3429107 94.7559049,23.9539031 C94.1619938,24.5683191 93.7183589,25.3857847 93.4375234,26.3833878 C93.1399016,27.4386664 92.9893589,28.758884 92.9893589,30.3066435 L92.9893589,36.1405672 C92.9893589,37.6901702 93.1401681,39.0161817 93.4383227,40.082258 C93.7188918,41.0911855 94.1622602,41.9133916 94.7556385,42.5270176 C95.3452865,43.1366931 96.1265102,43.5859832 97.0782602,43.8625099 C98.0907602,44.156945 99.355053,44.3062695 100.8365,44.3062695 L113.54151,44.3062695 C113.974754,44.3062695 114.325931,43.9531053 114.325931,43.5180366 L114.325931,41.9563191 C114.325931,41.520987 113.974754,41.1680863 113.54151,41.1680863 L100.929224,41.1680863 C100.045951,41.1680863 99.3265431,41.086445 98.7294345,40.9186855" id="Fill-10" fill="#000000"></path>
                    <path d="M90.2944569,36.5900943 C90.2944569,34.9235599 89.9059766,33.6462698 89.1402069,32.7935141 C88.3840293,31.9533996 87.2534931,31.5444034 85.6838516,31.5444034 L74.1229668,31.5444034 C73.4048911,31.5444034 71.7355984,31.2826248 71.7355984,28.8568271 L71.7355984,27.9664111 C71.7355984,27.2105714 71.9106543,26.5861477 72.256503,26.1107851 C72.532276,25.7312851 73.0856872,25.2788347 74.1538747,25.2788347 L88.7080293,25.2788347 C89.1415391,25.2788347 89.4924503,24.925934 89.4924503,24.4906019 L89.4924503,22.9291477 C89.4924503,22.494079 89.1415391,22.1409149 88.7080293,22.1409149 L73.2596773,22.1409149 C71.6346148,22.1409149 70.4435951,22.5636057 69.719924,23.3971363 C68.958151,24.274121 68.5877891,25.4136744 68.5877891,26.8811095 L68.5877891,29.3572088 C68.5877891,31.0247966 68.976003,32.3018233 69.7415063,33.1529989 C70.497151,33.9936401 71.6279536,34.6649416 73.198128,34.6649416 L84.7590128,34.6649416 C85.4770885,34.6649416 87.1469141,34.9272469 87.1469141,37.3527813 L87.1469141,38.4804836 C87.1469141,39.2365866 86.9710589,39.8607469 86.6254766,40.3363729 C86.3494372,40.7158729 85.7962924,41.1680599 84.7283714,41.1680599 L69.4031181,41.1680599 C68.9698747,41.1680599 68.6184306,41.5209607 68.6184306,41.9562927 L68.6184306,43.5180103 C68.6184306,43.953079 68.9698747,44.3062431 69.4031181,44.3062431 L85.6223023,44.3062431 C87.2470984,44.3062431 88.4381181,43.8835523 89.1620556,43.0497584 C89.9238286,42.1725103 90.2944569,41.0329569 90.2944569,39.5660485 L90.2944569,36.5900943 Z" id="Fill-12" fill="#000000"></path>
                    <path d="M141.098216,32.002674 C141.098216,31.6189603 141.083295,31.5520672 141.07317,31.5207275 C141.052121,31.515987 141.015351,31.5107198 140.958065,31.5107198 L128.993246,31.5107198 C128.560003,31.5107198 128.208825,31.8636206 128.208825,32.2989527 L128.208825,33.775342 C128.208825,34.210674 128.560003,34.5635748 128.993246,34.5635748 L137.135345,34.5635748 C137.815052,34.5635748 138.289861,35.0689603 138.289861,35.7926702 L138.289861,38.2771969 C138.289861,39.2410901 138.111341,39.9305634 137.744443,40.3851206 C137.468404,40.7266969 136.935243,41.134113 135.963509,41.134113 L125.790282,41.134113 C124.906476,41.134113 124.186802,41.0527351 123.58996,40.8847122 C122.920911,40.6972008 122.373894,40.3661588 121.964897,39.9010672 C121.569756,39.4520405 121.286522,38.8550061 121.124522,38.1270824 C120.977177,37.4671053 120.905503,36.6728153 120.905503,35.6997046 L120.905503,30.8154527 C120.905503,29.8418153 120.977443,29.0522656 121.125322,28.4015061 C121.287588,27.6870137 121.570289,27.0970901 121.965164,26.6478 C122.373894,26.1832351 122.920378,25.8524565 123.590493,25.6644183 C124.189999,25.4961321 124.909141,25.4144908 125.790282,25.4144908 L140.344437,25.4144908 C140.777947,25.4144908 141.129124,25.0618534 141.129124,24.626258 L141.129124,22.929174 C141.129124,22.4941053 140.777947,22.1409412 140.344437,22.1409412 L125.605101,22.1409412 C124.127917,22.1409412 122.865223,22.2955328 121.853256,22.5997122 C120.898575,22.8870366 120.114953,23.3429107 119.524506,23.9539031 C118.930861,24.5677924 118.487226,25.385258 118.206124,26.3836511 C117.908503,27.4384031 117.757693,28.7583573 117.757693,30.3066435 L117.757693,36.1405672 C117.757693,37.6904336 117.908769,39.0167084 118.206391,40.082258 C118.488026,41.0914489 118.931128,41.913655 119.524239,42.5270176 C120.113355,43.1366931 120.894578,43.5859832 121.846328,43.8625099 C122.859095,44.156945 124.123654,44.3062695 125.605101,44.3062695 L138.060184,44.3062695 C139.059894,44.3062695 139.791825,44.0147313 140.297809,43.4148 C140.821378,42.7935366 141.098216,41.5799794 141.098216,40.1678496 L141.098216,32.002674 Z" id="Fill-14" fill="#000000"></path>
                    <path d="M49.695072,53.4610156 L50.2993747,54.4886416 L35.9463878,62.7341416 C35.8422069,62.793924 35.7377595,62.8558134 35.6325128,62.9184927 C35.1688944,63.1937027 34.6922201,63.47655 34.1755786,63.6134966 C33.8723615,63.6946111 33.5329076,63.7341149 33.1923878,63.7341149 C32.8516016,63.7341149 32.5116148,63.6946111 32.2081313,63.6134966 C31.6909569,63.47655 31.2140161,63.1929126 30.7501313,62.9177027 C30.6454174,62.8552866 30.541503,62.7936607 30.4383878,62.7341416 L20.0741181,56.7782828 L8.79646678,50.2962332 C8.25318059,49.9828363 7.81567401,49.53855 7.5135227,49.0163095 L8.55772993,48.4263859 C8.75996349,48.7755996 9.0519898,49.0674011 9.40076941,49.2686073 L20.6789536,55.7503935 L31.0432234,61.706779 C31.151401,61.7689317 31.2601115,61.8337179 31.3698878,61.8987676 C31.779151,62.1418477 32.1657661,62.3714966 32.5214734,62.465779 C32.7167793,62.517924 32.9488549,62.5455767 33.1923878,62.5455767 C33.4353878,62.5455767 33.667197,62.517924 33.8641016,62.4655156 C34.2176773,62.3714966 34.604026,62.1421111 35.0130227,61.8995576 C35.1233319,61.8339813 35.2328418,61.7689317 35.3420852,61.7062523 L49.695072,53.4610156 M32.9262069,5.99480954 L32.9262069,4.80574466 C33.2582003,4.80574466 33.591526,4.8444584 33.8864832,4.92188588 C34.1923648,5.00115687 34.4867891,5.12203855 34.7622957,5.28084389 L53.2305622,15.8086111 C53.5905326,16.0153477 53.9739503,16.2289317 54.3674931,16.4480462 C55.6483056,17.1614851 57.0404931,17.9368134 58.1057497,18.7500653 C58.4422727,19.0071034 58.7271049,19.3210271 58.949322,19.6736645 L57.9282957,20.3017752 C57.7793516,20.065279 57.5917727,19.8598592 57.3708878,19.6910462 C56.3741082,18.9302027 54.9947102,18.1617218 53.7773122,17.4838363 C53.3739109,17.2591912 52.9931576,17.0471874 52.6297234,16.8383439 L34.1569273,6.30794313 C33.9744109,6.20312634 33.7807036,6.12359198 33.5782036,6.07092023 C33.3908911,6.0219355 33.1590819,5.99480954 32.9262069,5.99480954" id="Fill-16" fill="#EAA13A"></path>
                    <path d="M14.1506201,46.5874569 L13.8487352,47.099163 C13.4162911,46.8500256 13.0683109,46.4965981 12.8279753,46.0810179 C12.5873734,45.6649111 12.4544161,45.1863882 12.4538832,44.6899569 C12.4474885,37.8139225 12.4440247,30.9407851 12.4440247,24.0650141 C12.4440247,23.5298691 12.5974984,23.0189531 12.8706069,22.5833576 C13.0472615,22.3028805 13.275074,22.0529531 13.5428536,21.8485866 C14.2947681,21.2742011 15.2038865,20.7959416 16.0911563,20.3292698 C16.5108109,20.1085752 16.9259359,19.8905141 17.3168141,19.6658691 L31.3186234,11.6350065 L31.6194424,12.1475027 L17.6178997,20.1781019 C17.2174293,20.4082775 16.7879161,20.633976 16.3730576,20.8523004 C15.5116332,21.3052775 14.6211661,21.7737927 13.9089523,22.3176286 C13.6987253,22.4782775 13.520472,22.6728996 13.3800543,22.8954378 C13.1597023,23.2467584 13.0432648,23.6512775 13.0432648,24.0650141 C13.0432648,30.7095561 13.0464622,37.6485332 13.0533898,44.6894302 C13.0539227,45.0744607 13.155972,45.4539607 13.3480806,45.7868462 C13.5401891,46.1186782 13.8175609,46.3954683 14.1506201,46.5874569 M52.6256201,22.3176286 L52.9919852,21.8485866 C53.2597648,22.0529531 53.4865115,22.3028805 53.6634326,22.5833576 C53.937074,23.0189531 54.0900148,23.5298691 54.0900148,24.0650141 C54.0900148,30.9407851 54.0868174,37.8139225 54.0798898,44.6899569 C54.0796234,45.1863882 53.947199,45.6649111 53.7068635,46.0810179 C53.4659951,46.4965981 53.1172155,46.8500256 52.6855707,47.099163 L43.7086924,52.2554645 L35.4594819,56.9930256 L35.1583964,56.4807927 L43.4073405,51.7432317 L52.383153,46.5874569 C52.7164786,46.395205 52.9943832,46.1181515 53.1864918,45.7871095 C53.3786003,45.4547508 53.4803832,45.0749874 53.4806497,44.6894302 C53.4875773,37.6835599 53.4907747,30.7445828 53.4907747,24.0650141 C53.4907747,23.6504874 53.3743372,23.2462317 53.1547845,22.8964912 C53.013301,22.6723729 52.8353141,22.4777508 52.6256201,22.3176286" id="Fill-18" fill="#EAA13A"></path>
                    <path d="M33.192228,50.3566477 L33.192228,51.5454492 C32.9923924,51.5454492 32.7930898,51.5222737 32.615103,51.4748691 C32.3118859,51.3945447 32.0321161,51.2283653 31.7603398,51.0669263 C31.6990569,51.0308462 31.6383069,50.9945027 31.5775569,50.9597393 L25.5022905,47.4702355 L18.8909319,43.6728653 C18.5725273,43.4890408 18.3162049,43.2291057 18.1390174,42.9228195 C17.9620964,42.6162698 17.8643102,42.2638958 17.8637773,41.8983538 C17.8589812,36.8339645 17.8563168,32.9567966 17.8563168,27.892934 L19.0590602,27.892934 C19.0590602,33.0705676 19.0617247,36.9485256 19.0665207,41.8973004 C19.0665207,42.0503118 19.1072872,42.2012164 19.1832247,42.3326324 C19.2583628,42.4624683 19.3668069,42.5707088 19.495501,42.644976 L26.1063266,46.4426095 L32.182126,49.9321134 C32.247672,49.9695103 32.3134845,50.0087508 32.3798299,50.0479912 C32.5796655,50.166766 32.7866951,50.2894912 32.9281786,50.3271515 C32.9990536,50.34585 33.0955076,50.3566477 33.192228,50.3566477 M32.936172,18.2774416 L32.6286918,17.1284073 C32.8018826,17.0831095 32.996922,17.0604607 33.192228,17.0604607 C33.3867345,17.0604607 33.5820405,17.0831095 33.7552313,17.1284073 C33.9345503,17.1747584 34.1072082,17.2456019 34.2686753,17.3385676 L44.9388266,23.4677164 C45.2268562,23.6333691 45.5322049,23.7942813 45.8415503,23.9567737 C46.4948793,24.3004569 47.1641951,24.6525676 47.718672,25.0755218 C47.9158431,25.226163 48.0829056,25.4099874 48.2129319,25.6164607 C48.4146326,25.937495 48.5273398,26.3138347 48.5273398,26.7080828 C48.5273398,31.7719454 48.5246753,36.0441515 48.5198793,41.1085408 L47.3171359,41.107224 C47.3224648,35.5851172 47.3245964,31.4135141 47.3245964,26.7080828 C47.3245964,26.5432202 47.278501,26.382308 47.192172,26.2450981 C47.1362181,26.1563462 47.065876,26.0794454 46.9838102,26.0165027 C46.5095339,25.6549111 45.8825832,25.3251859 45.2764155,25.005995 C44.9644056,24.8419225 44.6420043,24.6723195 44.3342576,24.4956057 L33.6635734,18.3659302 C33.5956293,18.3266897 33.5236885,18.2974569 33.4469516,18.2774416 C33.3784747,18.2595332 33.285751,18.2492622 33.192228,18.2492622 C33.098172,18.2492622 33.0051819,18.2597966 32.936172,18.2774416" id="Fill-20" fill="#EAA13A"></path>
                    <path d="M24.0234809,36.646295 L23.4239743,36.6468218 C23.4234414,35.9478676 23.4226421,35.3658447 23.4221092,34.8504515 C23.4202441,32.9840279 23.4191783,31.9893218 23.4191783,29.4579172 C23.4191783,29.2064095 23.4911191,28.9662263 23.6195467,28.7615966 C23.7024118,28.6299172 23.8092572,28.5124592 23.9347539,28.4163332 C24.4548592,28.0191882 27.465448,26.271276 28.0369776,25.9426042 L28.3383296,26.454837 C27.4145566,26.9860317 24.7410237,28.549066 24.3013855,28.8853752 C24.2326421,28.9377836 24.1742901,29.0015164 24.1289941,29.0736767 C24.0567868,29.1890279 24.0184184,29.3217607 24.0184184,29.4579172 C24.0184184,31.9890584 24.0194842,32.9837645 24.0213493,34.8499248 L24.0234809,36.646295 M42.3651849,31.7617798 L42.964425,31.7617798 C42.964425,34.4040584 42.9633592,35.5043714 42.9612276,37.5849057 C42.9606947,38.0481538 42.9601618,38.5601233 42.9596289,39.1482034 C42.9593625,39.3815393 42.8975467,39.6061844 42.7843066,39.8018599 C42.6713329,39.9970088 42.5077342,40.1631882 42.3049678,40.2803828 L38.0921684,42.7027569 L37.7908164,42.1907874 L42.00255,39.7686767 C42.1112605,39.7059973 42.2018526,39.6156653 42.2639349,39.5082149 C42.3268164,39.3991844 42.3601224,39.2746156 42.3601224,39.1476767 L42.3617211,37.584379 C42.3638526,35.5038447 42.3651849,34.403795 42.3651849,31.7617798" id="Fill-22" fill="#EAA13A"></path>
                    <path d="M33.1919882,39.2081176 C33.1349684,39.2081176 33.0784816,39.2015336 33.0278566,39.1881023 C32.922077,39.1599229 32.8264224,39.0954 32.7326329,39.0414115 L31.0055211,38.0488122 L29.1257349,36.9685145 C29.0351428,36.9161061 28.9624026,36.8423656 28.9123105,36.7551939 C28.861952,36.6680221 28.833975,36.5676824 28.833975,36.4636557 C28.8326428,35.0230832 28.8318434,33.5830374 28.8318434,32.1422015 C28.8318434,32.030274 28.8638171,31.923087 28.9211033,31.8317015 C28.9581395,31.7732359 29.0055671,31.7208275 29.0617875,31.6779 C29.2938632,31.5006595 29.5970803,31.3671366 29.8520704,31.2204458 L32.8858401,29.4770107 C32.9314026,29.4504115 32.9806954,29.4303962 33.0315868,29.4169649 C33.0808796,29.4040603 33.1363007,29.3977397 33.1919882,29.3977397 C33.2471428,29.3977397 33.3028303,29.4040603 33.352123,29.4169649 C33.4030145,29.4303962 33.4523072,29.4504115 33.4978697,29.4770107 L36.5316395,31.2204458 C36.7866296,31.3671366 37.0898467,31.5006595 37.3219224,31.6779 C37.3781428,31.7208275 37.4255704,31.7732359 37.4623401,31.8317015 C37.5198928,31.923087 37.5518664,32.030274 37.5518664,32.1422015 C37.5518664,33.5830374 37.5510671,35.0230832 37.5497349,36.4636557 C37.5497349,36.5676824 37.5217579,36.6680221 37.4716658,36.7551939 C37.4210408,36.8423656 37.3483007,36.9161061 37.2577086,36.9685145 L35.3781888,38.0488122 L33.651077,39.0414115 C33.5570211,39.0954 33.4616329,39.1599229 33.3555868,39.1881023 C33.3052283,39.2015336 33.2487414,39.2081176 33.1919882,39.2081176 M33.1919882,37.9300374 L34.7736197,37.0211863 L36.3475243,36.1165489 C36.3485901,34.9027282 36.349123,33.6894344 36.349123,32.4758771 C36.3078237,32.4534916 36.2651921,32.4313695 36.222827,32.408984 C36.1274388,32.3584191 36.0283204,32.3065374 35.9270704,32.2483351 L33.1919882,30.6760832 L30.456373,32.2483351 C30.3553895,32.3065374 30.2562711,32.3584191 30.1608829,32.408984 C30.1185178,32.4311061 30.0758862,32.4534916 30.0343204,32.4758771 C30.0345868,33.6894344 30.0351197,34.9029916 30.0361855,36.1165489 L31.6100901,37.0211863 L33.1919882,37.9300374" id="Fill-24" fill="#EAA13A"></path>
                    <g id="Group-28" transform="translate(32.506579, 0.199889)">
                        <mask id="mask-4" fill="white">
                            <use xlink:href="#path-3"></use>
                        </mask>
                        <g id="Clip-27"></g>
                        <path d="M0.0838243421,13.6073531 C0.0838243421,13.2789447 0.353202632,13.0129523 0.685196053,13.0129523 C1.01745592,13.0129523 1.28656776,13.2789447 1.28656776,13.6073531 L1.28656776,23.2752538 C1.28656776,23.6039256 1.01745592,23.8699179 0.685196053,23.8699179 C0.353202632,23.8699179 0.0838243421,23.6039256 0.0838243421,23.2752538 L0.0838243421,13.6073531 M0.0838243421,0.65773855 C0.0838243421,0.329593511 0.353202632,0.0633377863 0.685196053,0.0633377863 C1.01745592,0.0633377863 1.28656776,0.329593511 1.28656776,0.65773855 L1.28656776,9.39413931 C1.28656776,9.72254771 1.01745592,9.98880344 0.685196053,9.98880344 C0.353202632,9.98880344 0.0838243421,9.72254771 0.0838243421,9.39413931 L0.0838243421,0.658528626 L0.0838243421,0.65773855" id="Fill-26" fill="#EAA13A" mask="url(#mask-4)"></path>
                    </g>
                    <path d="M32.5904033,58.9649244 C32.5904033,58.6367794 32.8597816,58.3705237 33.191775,58.3705237 C33.5240349,58.3705237 33.7931467,58.6367794 33.7931467,58.9649244 L33.7931467,68.3420771 C33.7931467,68.6707489 33.5240349,68.9364779 33.191775,68.9364779 C32.8597816,68.9364779 32.5904033,68.6707489 32.5904033,68.3420771 L32.5904033,58.9649244 M32.5904033,39.2074855 C32.5904033,38.8793405 32.8597816,38.6130847 33.191775,38.6130847 C33.5240349,38.6130847 33.7931467,38.8793405 33.7931467,39.2074855 L33.7931467,50.7691992 C33.7931467,51.0976076 33.5240349,51.3638634 33.191775,51.3638634 C32.8597816,51.3638634 32.5904033,51.0976076 32.5904033,50.7691992 L32.5904033,39.2080122 L32.5904033,39.2074855" id="Fill-29" fill="#EAA13A"></path>
                    <g id="Group-33" transform="translate(0.000000, 14.684622)">
                        <mask id="mask-6" fill="white">
                            <use xlink:href="#path-5"></use>
                        </mask>
                        <g id="Clip-32"></g>
                        <path d="M0.2966625,1.19388435 C0.0102315789,1.02770496 -0.0854230263,0.663216412 0.0829717105,0.380369084 C0.251366447,0.0969950382 0.619863158,0.00271259542 0.906294079,0.169155344 C0.906560526,0.169418702 9.28792895,5.04735 16.965077,9.5157584 C17.250975,9.68220115 17.3463632,10.0466897 17.177702,10.3292737 C17.0095737,10.6123844 16.6408105,10.7066668 16.3546461,10.5399607 L0.297195395,1.19414771 L0.2966625,1.19388435" id="Fill-31" fill="#EAA13A" mask="url(#mask-6)"></path>
                    </g>
                    <path d="M32.9161618,24.2836019 C32.629198,24.1182126 32.5322112,23.7542508 32.6995401,23.4708767 C32.8666026,23.186976 33.2348329,23.0913767 33.5217967,23.256766 C33.5223296,23.2570294 37.2736421,25.4210485 40.7092145,27.4036134 C40.9961783,27.5690027 41.0928987,27.9329645 40.9255697,28.2166019 C40.7582408,28.499976 40.3900105,28.5958385 40.1030467,28.4301859 L32.9166947,24.2838653 L32.9161618,24.2836019" id="Fill-34" fill="#EAA13A"></path>
                    <path d="M53.4469174,22.6216763 C53.5897332,22.704371 53.6379602,22.8858252 53.5540293,23.0272489 C53.4706313,23.1681458 53.2867826,23.2158137 53.1439668,23.1331191 C53.1434339,23.1328557 45.7631082,18.8854053 38.4989536,14.7048481 C38.3561378,14.6224168 38.3079109,14.441226 38.3910424,14.2998023 C38.4744405,14.1583786 38.6577563,14.1107107 38.8008385,14.1928786 L53.4463845,22.621413 L53.4469174,22.6216763" id="Fill-36" fill="#EAA13A"></path>
                    <path d="M32.5703664,4.89407519 C32.8554651,4.72578893 33.2247612,4.8179645 33.3950211,5.0997584 C33.5650145,5.38155229 33.4720243,5.74656756 33.1869257,5.91485382 C33.1847941,5.91617061 22.3233336,12.3028844 15.0410605,16.4513118 C14.7535638,16.615121 14.3856,16.5174149 14.2198697,16.2329874 C14.0541395,15.9485599 14.1529914,15.5851248 14.4404882,15.4213156 C21.6324355,11.3245065 32.4629882,4.9572813 32.5698336,4.89433855 L32.5703664,4.89407519" id="Fill-38" fill="#EAA13A"></path>
                    <path d="M27.4042984,54.2836168 C27.5473806,54.3657847 27.5964069,54.5469756 27.5132753,54.6883992 C27.4304102,54.8300863 27.246828,54.8782809 27.1037457,54.796113 C27.1032128,54.7958496 19.7226207,50.5483992 12.4587326,46.367842 C12.3156503,46.2854107 12.2671569,46.1042198 12.3508214,45.9630595 C12.4336865,45.8216359 12.6172687,45.7737046 12.760351,45.8561359 L27.4037655,54.2833534 L27.4042984,54.2836168" id="Fill-40" fill="#EAA13A"></path>
                    <path d="M45.2755362,43.7182683 C45.5678289,43.5620966 45.9325954,43.6692836 46.0908651,43.9579248 C46.2488684,44.246566 46.1404243,44.6071042 45.848398,44.7635393 C45.8478651,44.7638027 39.6121974,48.1071424 33.4748487,51.5919057 C33.1868191,51.7557149 32.8191217,51.6574821 32.6536579,51.3727912 C32.4884605,51.0881004 32.5878454,50.7246653 32.8756086,50.5611195 C38.9551382,47.1090126 45.2118553,43.752505 45.2750033,43.7185317 L45.2755362,43.7182683" id="Fill-42" fill="#EAA13A"></path>
                    <path d="M33.0647329,17.0076836 C33.3532954,16.8454546 33.7204599,16.9452676 33.8845914,17.2307485 C34.0484566,17.515966 33.947473,17.8788744 33.6589105,18.0411034 C33.6586441,18.0413668 28.3355586,21.0494508 23.0969368,24.0098668 C22.8083743,24.1728859 22.4412099,24.073863 22.2762789,23.7889088 C22.1116145,23.5039546 22.2115322,23.1407828 22.5000947,22.9777637 L33.0642,17.0079469 L33.0647329,17.0076836" id="Fill-44" fill="#EAA13A"></path>
                    <path d="M8.33327467,37.4446145 C8.33220888,37.7730229 8.0622977,38.0382252 7.73030428,38.0371718 C7.39804441,38.0363817 7.12946546,37.7693359 7.13053125,37.4411908 C7.13053125,37.4404008 7.16197204,28.0118931 7.19287993,19.7037137 C7.19421217,19.3755687 7.46412336,19.1103664 7.79638322,19.1114198 C8.12837664,19.1127366 8.39668914,19.3797824 8.39535691,19.7079275 C8.36471546,28.0158435 8.33327467,37.4443511 8.33327467,37.4440878 L8.33327467,37.4446145" id="Fill-46" fill="#EAA13A"></path>
                    <path d="M59.4151786,49.0267385 C59.4151786,49.3548836 59.1460668,49.6211393 58.8138069,49.6211393 C58.481547,49.6211393 58.2124352,49.3548836 58.2124352,49.0267385 C58.2124352,49.0259485 58.243876,39.5974408 58.2747839,31.2892615 C58.2761161,30.9611164 58.5460273,30.6959141 58.8780207,30.6969676 C59.2102806,30.6982844 59.4785931,30.9653302 59.4772609,31.2937385 C59.4466194,39.6013912 59.4151786,49.0298989 59.4151786,49.0262118 L59.4151786,49.0267385" id="Fill-48" fill="#EAA13A"></path>
                    <path d="M49.2644398,44.4382649 C48.9777424,44.2726122 48.8812885,43.908387 49.0486174,43.6252763 C49.2162128,43.3416389 49.5844431,43.2463031 49.8711405,43.4119557 C57.6098378,47.8822076 65.8401306,52.7743603 65.8419957,52.7756771 C66.1265615,52.9447534 66.2187523,53.3100321 66.0474266,53.5912992 C65.8763674,53.8725664 65.5068049,53.9636885 65.2222391,53.7943489 C65.1399069,53.7456275 56.9082819,48.8540015 49.2644398,44.4382649" id="Fill-50" fill="#EAA13A"></path>
                    <path d="M65.1526431,15.0326244 C65.4382747,14.8653916 65.8073043,14.958884 65.9764984,15.2412046 C66.1459589,15.5237885 66.0513701,15.8882771 65.765472,16.0552466 C65.7649391,16.0557733 56.7424984,21.3295328 48.4781003,26.1597962 C48.1924687,26.327029 47.8234391,26.2332733 47.6545115,25.9509527 C47.4853174,25.6683687 47.5801727,25.3038802 47.8658043,25.1366473 L65.1521102,15.0328878 L65.1526431,15.0326244" id="Fill-52" fill="#EAA13A"></path>
                    <path d="M18.327902,42.4670771 C18.6151322,42.3024779 18.9830961,42.3991305 19.1496257,42.6830313 C19.3161553,42.9669321 19.2183691,43.3308939 18.9311388,43.4954931 C18.9303395,43.4957565 8.59564539,49.459516 0.917165132,53.9252908 C0.631000658,54.0919969 0.2622375,53.9974511 0.0938427632,53.7146038 C-0.0742855263,53.4314931 0.0211026316,53.0672679 0.307267105,52.9008252 C7.89941842,48.4850885 18.2207901,42.5289664 18.3273691,42.4673405 L18.327902,42.4670771" id="Fill-54" fill="#EAA13A"></path>
                    <path d="M11.3974194,17.8311802 C10.7305016,16.7005809 11.1171168,15.2497374 12.2615082,14.5905504 C13.4056332,13.9316267 14.8737582,14.3137603 15.540676,15.4443595 C16.2078602,16.5749588 15.8209786,18.0255389 14.6768536,18.684726 C13.5327286,19.343913 12.0646036,18.961516 11.3974194,17.8311802" id="Fill-56" fill="#EAA13A"></path>
                    <path d="M51.5570862,23.8213019 C50.8901684,22.6907027 51.2767836,21.2401225 52.4209086,20.5809355 C53.5650336,19.9217485 55.033425,20.3041454 55.7003428,21.4347447 C56.3672605,22.5650805 55.9806454,24.015924 54.8365204,24.6751111 C53.6921289,25.3342981 52.2240039,24.9519011 51.5570862,23.8213019" id="Fill-58" fill="#EAA13A"></path>
                    <path d="M27.5593707,26.5841462 C27.0779003,25.7679973 27.3571372,24.7206195 28.183124,24.2449935 C29.0088444,23.7693676 30.068772,24.0451042 30.5505089,24.8612531 C31.0319793,25.6774019 30.752476,26.7247798 29.9267556,27.2004057 C29.1007688,27.6760317 28.0408411,27.400295 27.5593707,26.5841462" id="Fill-60" fill="#EAA13A"></path>
                    <path d="M35.8843056,43.2385076 C35.4028352,42.4223588 35.682072,41.3749809 36.5080589,40.899355 C37.3337793,40.423729 38.3937069,40.6994656 38.8754438,41.5156145 C39.3566477,42.3317634 39.0776773,43.3791412 38.2519569,43.8547672 C37.4257036,44.3306565 36.3660424,44.0546565 35.8843056,43.2385076" id="Fill-62" fill="#EAA13A"></path>
                    <path d="M11.3974194,47.2559931 C10.7305016,46.1253939 11.1171168,44.6745504 12.2615082,44.0156267 C13.4056332,43.3564397 14.8737582,43.7388366 15.540676,44.8691725 C16.2078602,45.9997718 15.8209786,47.4506153 14.6768536,48.1098023 C13.5327286,48.768726 12.0646036,48.386329 11.3974194,47.2559931" id="Fill-64" fill="#EAA13A"></path>
                    <path d="M49.1595661,54.4312557 C48.4923819,53.3006565 48.8792635,51.849813 50.0233885,51.1908893 C51.1675135,50.5317023 52.6356385,50.9140992 53.3028227,52.0444351 C53.9697405,53.1750344 53.5828589,54.6258779 52.4387339,55.2850649 C51.2946089,55.9439885 49.8264839,55.561855 49.1595661,54.4312557" id="Fill-66" fill="#EAA13A"></path>
                    <path d="M33.1758414,13.7140134 L33.1841013,13.119876 C32.3874237,13.1090782 31.7498151,12.468063 31.750348,11.6877309 L31.750348,11.6677156 L31.750348,11.6671889 C31.7610059,10.8842233 32.4100717,10.2542691 33.2038184,10.2545324 L33.2248678,10.2545324 L33.2251342,10.2547958 C34.0220783,10.2653302 34.6591539,10.9066088 34.6586211,11.6866775 C34.6586211,11.6935248 34.6586211,11.7003721 34.6583546,11.7077462 L34.6583546,11.7072195 C34.6482296,12.4904485 33.9991638,13.1201393 33.2051507,13.119876 C33.198223,13.119876 33.1912954,13.119876 33.1838349,13.119876 L33.1841013,13.119876 L33.1758414,13.7140134 L33.167848,14.3084141 C33.1801046,14.3086775 33.1923612,14.3086775 33.2051507,14.3086775 C34.6548908,14.3084141 35.8400487,13.1604332 35.861098,11.7238111 L35.861098,11.7235477 C35.8613645,11.7114332 35.8613645,11.6990553 35.8613645,11.6866775 C35.8608316,10.2542691 34.6953908,9.08653626 33.2416539,9.06625763 L33.2419204,9.06625763 C33.2291309,9.06599427 33.2163414,9.06573092 33.2038184,9.06573092 C31.7543447,9.06625763 30.5691868,10.2142385 30.5481375,11.6505973 L30.5481375,11.6556011 L30.5481375,11.6500706 C30.5478711,11.6629752 30.5478711,11.6756164 30.5478711,11.6877309 C30.5484039,13.1201393 31.7138447,14.2878721 33.1673151,14.3084141 L33.167848,14.3084141 L33.1758414,13.7140134 Z" id="Fill-68" fill="#EAA13A"></path>
                    <path d="M7.61850296,41.510321 L7.62676283,40.9161836 C6.82981875,40.9053859 6.19247664,40.2641073 6.19300954,39.4840385 L6.19300954,39.4634966 C6.20340099,38.6802676 6.85273322,38.0505767 7.64647993,38.0508401 C7.65394046,38.0508401 7.66060164,38.0508401 7.66699638,38.0508401 L7.66752928,38.0508401 C8.46447336,38.0616378 9.10181546,38.7026531 9.10128257,39.4829851 C9.10128257,39.4898324 9.10101612,39.4966798 9.10101612,39.5035271 L9.10101612,39.5035271 C9.09062467,40.2864927 8.44182533,40.9164469 7.64781217,40.9161836 C7.64088454,40.9161836 7.63395691,40.9161836 7.62622993,40.9159202 L7.62676283,40.9161836 L7.61850296,41.510321 L7.61050954,42.1044584 C7.62276612,42.1047218 7.6350227,42.1049851 7.64781217,42.1049851 C9.0975523,42.1044584 10.2827102,40.9564775 10.3037595,39.5201187 L10.3037595,39.5201187 C10.304026,39.5077408 10.304026,39.495363 10.304026,39.4829851 C10.3034931,38.0505767 9.1380523,36.8828439 7.68431546,36.8623019 L7.68484836,36.8623019 C7.67152599,36.8620385 7.65873651,36.8620385 7.64647993,36.8620385 C6.19700625,36.8623019 5.01184836,38.0102828 4.99079901,39.446905 C4.99053257,39.4592828 4.99053257,39.4716607 4.99053257,39.4840385 C4.99079901,40.9164469 6.15650625,42.0841798 7.61024309,42.1044584 L7.61050954,42.1044584 L7.61850296,41.510321 Z" id="Fill-70" fill="#EAA13A"></path>
                    <path d="M58.8835895,30.8887981 L58.8918493,30.2943973 C58.0951717,30.2835996 57.4575632,29.6425844 57.4580961,28.8625156 C57.4580961,28.855405 57.4580961,28.848821 57.4583625,28.8427637 L57.4583625,28.8409202 L57.4583625,28.8417103 C57.4687539,28.0587447 58.1178197,27.4287905 58.9115664,27.4293172 C58.919027,27.4293172 58.9256882,27.4293172 58.9326158,27.4293172 L58.9355467,27.4293172 L58.9328822,27.4293172 C59.7295599,27.4401149 60.366902,28.0811302 60.3663691,28.8611989 C60.3663691,28.8680462 60.3663691,28.8751569 60.3661026,28.8822676 L60.3661026,28.8820042 C60.3557112,29.6649698 59.7069118,30.294924 58.9128987,30.2943973 C58.9059711,30.2943973 58.8990434,30.2943973 58.8918493,30.2943973 L58.8835895,30.8887981 L58.8753296,31.4829355 C58.8878526,31.4831989 58.9001092,31.4831989 58.9128987,31.4831989 C60.3626388,31.4829355 61.5477967,30.3349546 61.5688461,28.8985958 L61.5688461,28.8980691 C61.5691125,28.8862179 61.5691125,28.8738401 61.5691125,28.8611989 C61.5685796,27.4287905 60.4031388,26.261321 58.949402,26.240779 L58.9496684,26.240779 C58.9368789,26.2405156 58.9240895,26.2405156 58.9115664,26.2405156 C57.4620928,26.240779 56.2769349,27.3887599 56.2558855,28.8251187 L56.2558855,28.8240653 C56.2556191,28.8374966 56.2556191,28.8504011 56.2556191,28.8625156 C56.256152,30.294924 57.4215928,31.4626569 58.8753296,31.4829355 L58.8835895,30.8887981 Z" id="Fill-72" fill="#EAA13A"></path>
                    <path d="M33.1758414,58.7527363 L33.1841013,58.1585989 C32.3874237,58.1478011 31.7498151,57.5067859 31.750348,56.7267172 L31.750348,56.7064385 L31.7506145,56.7016981 L31.750348,56.7061752 C31.7610059,55.9229462 32.4100717,55.2932553 33.2038184,55.2935187 L33.2243349,55.2935187 L33.2251342,55.2935187 C34.0220783,55.3040531 34.6591539,55.9453317 34.6586211,56.7254004 C34.6586211,56.7322477 34.6586211,56.7393584 34.6583546,56.7464691 L34.6583546,56.7459424 C34.6482296,57.5291714 33.9991638,58.1588622 33.2051507,58.1585989 L33.1838349,58.1585989 L33.1841013,58.1585989 L33.1758414,58.7527363 L33.167848,59.3474004 L33.2051507,59.3474004 C34.6548908,59.3474004 35.8400487,58.1991561 35.861098,56.7627973 L35.861098,56.7622706 C35.8613645,56.7501561 35.8613645,56.7380416 35.8613645,56.7254004 C35.8608316,55.2932553 34.6953908,54.1252592 33.2416539,54.1049805 L33.2421868,54.1049805 C33.2291309,54.1047172 33.2163414,54.1047172 33.2038184,54.1047172 C31.7543447,54.1049805 30.5691868,55.2529615 30.5481375,56.6893202 L30.5481375,56.6887935 C30.5478711,56.7016981 30.5478711,56.7143393 30.5478711,56.7267172 C30.5484039,58.1591256 31.7138447,59.3268584 33.1673151,59.3474004 L33.167848,59.3474004 L33.1758414,58.7527363 Z" id="Fill-74" fill="#EAA13A"></path>
                    <path d="M18.4941918,28.2811775 L18.5024516,27.6867767 C17.7055076,27.675979 17.0681655,27.0349637 17.0686984,26.254895 C17.0686984,26.2480477 17.0686984,26.2412004 17.0689648,26.2346164 L17.0689648,26.2343531 C17.0793563,25.451124 17.728422,24.8211698 18.5221688,24.8214332 C18.5296293,24.8214332 18.5362905,24.8214332 18.5429516,24.8216966 L18.5434845,24.8216966 C19.3401622,24.8322309 19.9775043,25.4735095 19.9769714,26.2538416 C19.9769714,26.2604256 19.9767049,26.2675363 19.9767049,26.2743836 L19.9767049,26.2741202 C19.9663135,27.0573492 19.3175141,27.6873034 18.523501,27.6867767 C18.5165734,27.6867767 18.5096457,27.6867767 18.5021852,27.6867767 L18.5024516,27.6867767 L18.4941918,28.2811775 L18.4861984,28.8753149 C18.4984549,28.8755782 18.5107115,28.8755782 18.523501,28.8755782 C19.9732411,28.8753149 21.158399,27.727334 21.1794484,26.2909752 L21.1794484,26.2907118 C21.1797148,26.2785973 21.1797148,26.2662195 21.1797148,26.2538416 C21.1791819,24.8211698 20.0137411,23.6537004 18.5600043,23.6331584 L18.5605372,23.6331584 C18.5474813,23.632895 18.5346918,23.632895 18.5221688,23.632895 C17.0726951,23.6331584 15.8875372,24.7811393 15.8664878,26.2174981 L15.8664878,26.2174981 C15.8662214,26.229876 15.8662214,26.2425172 15.8662214,26.254895 C15.8667543,27.6873034 17.0321951,28.8550363 18.4859319,28.8753149 L18.4861984,28.8753149 L18.4941918,28.2811775 Z" id="Fill-76" fill="#EAA13A"></path>
                    <path d="M23.7437645,38.5583588 L23.7482941,38.2620802 C23.3110539,38.2565496 22.9604092,37.9036489 22.9606757,37.4727939 L22.9606757,37.4617328 L22.9606757,37.4609427 L22.9606757,37.4612061 C22.9665375,37.0290344 23.323577,36.6824542 23.758952,36.6824542 L23.7698763,36.6827176 L23.7706757,36.6827176 C24.2076493,36.6885115 24.5582941,37.0414122 24.5582941,37.4720038 L24.5582941,37.4835916 L24.5580276,37.4859618 L24.5582941,37.4835916 C24.5521658,37.9160267 24.1951263,38.2623435 23.7597513,38.2623435 L23.7477612,38.2620802 L23.7482941,38.2620802 L23.7437645,38.5583588 L23.7400342,38.8546374 C23.7466954,38.8546374 23.7528237,38.8546374 23.7597513,38.8546374 C24.523123,38.8546374 25.1466099,38.2486489 25.1575342,37.4917557 L25.1575342,37.4917557 L25.1575342,37.4720038 C25.1575342,36.7174809 24.5447053,36.1012214 23.7789355,36.0904237 L23.7797349,36.0904237 C23.7720079,36.0904237 23.7653467,36.0901603 23.758952,36.0901603 C22.9953138,36.0904237 22.3723599,36.6964122 22.3614355,37.4533053 L22.3614355,37.4527786 C22.3614355,37.459626 22.3611691,37.4664733 22.3611691,37.4727939 C22.3614355,38.2275802 22.973998,38.8435763 23.7397678,38.8546374 L23.7400342,38.8546374 L23.7437645,38.5583588 Z" id="Fill-78" fill="#EAA13A"></path>
                    <path d="M37.9963539,15.1236676 C37.3896533,15.1152401 36.9047191,14.6224958 36.9132454,14.0225645 C36.9217717,13.4228966 37.4205612,12.9435836 38.0269954,12.9520111 C38.6336961,12.9604385 39.1183638,13.4534462 39.1101039,14.0531141 C39.1013112,14.6527821 38.6027882,15.1323584 37.9963539,15.1236676" id="Fill-80" fill="#EAA13A"></path>
                    <path d="M27.4069095,55.6735718 C26.8004753,55.6651443 26.3155411,55.1721366 26.3240674,54.5724687 C26.3325938,53.9728008 26.8311168,53.4932244 27.437551,53.5016519 C28.0442516,53.5100794 28.5291859,54.003087 28.5206595,54.6030183 C28.5121332,55.2026863 28.0136102,55.6819992 27.4069095,55.6735718" id="Fill-82" fill="#EAA13A"></path>
                    <path d="M42.6581438,32.0414931 L42.6624069,31.7452145 C42.2251668,31.7394206 41.8747885,31.3865198 41.8750549,30.9556649 L41.8750549,30.9451305 L41.8750549,30.9443405 C41.8809168,30.5121687 42.2376898,30.1653252 42.6733312,30.1658519 L42.684522,30.1658519 L42.6847885,30.1658519 C43.1217622,30.1716458 43.4726734,30.5245466 43.4726734,30.9551382 L43.4724069,30.966726 L43.4724069,30.9712031 L43.4724069,30.9664626 C43.4665451,31.3988977 43.1092391,31.7454779 42.6741306,31.7452145 L42.6624069,31.7452145 L42.6581438,32.0414931 L42.6538806,32.3377718 C42.6608082,32.3377718 42.667203,32.3377718 42.6741306,32.3377718 C43.4375023,32.3375084 44.0607227,31.7317832 44.0719135,30.9748901 L44.0719135,30.9746267 L44.0719135,30.9551382 C44.071647,30.2006153 43.4588181,29.5843557 42.6933148,29.5732947 L42.6935813,29.5732947 C42.6863872,29.5732947 42.679726,29.5732947 42.6733312,29.5732947 C41.9096931,29.573558 41.2867391,30.1792832 41.2758148,30.9361763 L41.2758148,30.9356496 C41.2755484,30.9430237 41.2755484,30.9496076 41.2755484,30.9556649 C41.2758148,31.7104511 41.8883773,32.3267107 42.6538806,32.3377718 L42.6581438,32.0414931 Z" id="Fill-84" fill="#EAA13A"></path>
                    <path d="M47.7909059,44.7804469 L47.7991658,44.1860462 C47.0024882,44.1755118 46.3648796,43.5344966 46.3654125,42.7541645 C46.3654125,42.7470538 46.3654125,42.7404698 46.3656789,42.7344126 L46.3656789,42.7336225 C46.3760704,41.9503935 47.0251362,41.3207027 47.8188829,41.320966 C47.8263434,41.320966 47.8330046,41.320966 47.8396658,41.320966 L47.8401987,41.320966 C48.6371428,41.3317637 49.2742184,41.972779 49.2736855,42.7531111 C49.2736855,42.7599584 49.2736855,42.7668057 49.2734191,42.7741798 L49.2734191,42.7736531 C49.2630276,43.5566187 48.6142283,44.1865729 47.8202151,44.1863095 C47.8132875,44.1863095 47.8063599,44.1863095 47.7988993,44.1860462 L47.7991658,44.1860462 L47.7909059,44.7804469 L47.7829125,45.3748477 C47.7954355,45.3748477 47.8074257,45.3751111 47.8202151,45.3751111 C49.2699553,45.3748477 50.4551132,44.2266034 50.4761625,42.7902447 L50.4761625,42.7899813 C50.4764289,42.7778668 50.4764289,42.7654889 50.4764289,42.7531111 C50.4758961,41.3207027 49.3104553,40.1529698 47.8567184,40.1324279 L47.8575178,40.1324279 C47.8441954,40.1324279 47.8314059,40.1321645 47.8188829,40.1321645 C46.3694092,40.1324279 45.1842513,41.2804088 45.163202,42.7170309 L45.163202,42.7159775 C45.1629355,42.7291454 45.1629355,42.74205 45.1629355,42.7541645 C45.1634684,44.1865729 46.3289092,45.3543057 47.7826461,45.3748477 L47.7829125,45.3748477 L47.7909059,44.7804469 Z" id="Fill-86" fill="#EAA13A"></path>
                </g>
            </g>
        </g>
    </g>
</svg>